<?xml version="1.0" standalone="no"?>
<!DOCTYPE svg PUBLIC "-//W3C//DTD SVG 20010904//EN"
 "http://www.w3.org/TR/2001/REC-SVG-20010904/DTD/svg10.dtd">
<svg version="1.0" xmlns="http://www.w3.org/2000/svg"
 width="570.000000pt" height="570.000000pt" viewBox="0 0 570.000000 570.000000"
 preserveAspectRatio="xMidYMid meet">
<metadata>
Created by potrace 1.14, written by Peter Selinger 2001-2017
</metadata>
<g transform="translate(0.000000,570.000000) scale(0.100000,-0.100000)"
fill="#000000" stroke="none">
<path d="M2808 5504 c-2 -2 -51 -6 -109 -9 -216 -12 -239 -14 -281 -20 -54 -8
-82 -13 -88 -16 -3 -1 -9 -3 -15 -4 -113 -17 -315 -89 -445 -158 -161 -86
-384 -259 -546 -425 l-61 -64 -24 39 c-39 62 -58 110 -90 227 -16 61 -32 121
-35 133 -13 66 -30 98 -52 101 -40 6 -55 -18 -78 -120 -9 -42 -13 -55 -27 -94
-32 -88 -92 -191 -157 -268 -36 -43 -154 -158 -180 -176 -12 -8 -33 -23 -45
-33 -13 -9 -50 -20 -82 -23 -68 -8 -85 -18 -81 -52 3 -29 10 -33 94 -60 124
-39 265 -161 340 -291 l20 -36 -43 -93 c-42 -91 -78 -206 -89 -285 -7 -47 -12
-71 -14 -74 -4 -5 -7 -23 -9 -45 -2 -31 -19 -11 -26 31 -3 19 -8 37 -10 40 -2
4 -7 49 -11 101 -3 52 -7 101 -8 108 -7 45 -68 39 -85 -8 -5 -17 -10 -33 -10
-35 -2 -14 -102 -196 -122 -221 -101 -121 -178 -167 -282 -171 -38 -1 -80 2
-93 7 -47 18 -86 -57 -49 -94 8 -8 37 -18 63 -21 26 -4 62 -11 80 -17 18 -5
39 -11 45 -12 136 -27 187 -96 215 -288 5 -31 8 -62 7 -70 -2 -7 -5 -35 -9
-63 -9 -73 -16 -118 -21 -131 -5 -16 23 -54 40 -54 24 0 41 26 54 84 7 30 17
58 22 61 5 4 9 13 9 21 0 13 29 59 61 98 4 4 5 -18 1 -50 -12 -112 -2 -469 14
-495 2 -3 6 -29 9 -57 9 -83 51 -269 85 -377 17 -55 37 -131 45 -170 7 -38 18
-83 25 -100 6 -16 12 -32 13 -35 4 -18 145 -292 166 -325 15 -22 33 -52 40
-67 8 -15 22 -37 33 -47 10 -11 18 -23 18 -26 0 -25 244 -290 345 -375 279
-233 690 -423 1055 -485 82 -14 235 -32 259 -30 39 3 142 16 171 20 14 2 56 7
93 9 37 3 71 7 75 10 4 2 30 6 57 10 28 3 61 8 75 11 14 3 45 8 70 11 25 3 52
10 61 15 9 4 18 6 21 4 2 -3 20 0 39 5 19 6 48 13 64 16 109 19 469 165 486
196 6 11 14 18 19 16 5 -2 39 -32 77 -68 37 -36 97 -90 133 -120 35 -30 73
-64 85 -75 11 -12 40 -36 65 -55 25 -19 50 -39 56 -45 6 -5 28 -23 49 -39 20
-17 56 -45 79 -63 22 -18 49 -33 58 -33 9 0 20 -5 24 -11 10 -16 87 -5 115 16
13 10 41 39 63 64 37 45 151 171 229 255 67 72 290 307 342 361 123 128 233
245 272 291 23 27 52 60 64 74 36 42 69 98 69 118 0 11 -17 39 -37 63 -50 58
-83 106 -83 119 0 5 -4 10 -10 10 -5 0 -10 5 -10 11 0 5 -22 45 -50 88 -27 43
-50 83 -50 89 0 6 -3 12 -7 14 -13 5 -165 261 -169 283 -2 12 9 61 25 108 17
48 28 87 26 87 -2 0 3 19 11 42 8 23 17 55 20 72 3 17 9 49 14 71 5 22 11 60
15 85 3 25 8 56 10 70 4 27 13 111 21 205 7 79 7 512 0 595 -10 116 -17 184
-23 215 -2 17 -6 39 -8 50 -7 46 -17 93 -31 145 -8 30 -16 62 -18 71 -2 8 -12
33 -21 55 -9 21 -18 44 -19 49 -6 28 -211 430 -252 495 -104 161 -231 316
-329 398 -27 23 -63 53 -80 68 -73 63 -379 262 -480 312 -62 31 -235 98 -275
107 -8 2 -57 15 -109 29 -51 15 -112 28 -135 30 -22 2 -68 10 -101 19 -33 9
-71 18 -85 21 -14 3 -34 7 -45 9 -11 2 -49 9 -85 15 -36 7 -81 14 -100 18 -39
7 -416 14 -422 8z m412 -1715 c25 -5 50 -11 55 -13 31 -9 102 -29 117 -31 72
-14 183 -99 264 -202 46 -58 129 -203 117 -203 -3 0 -1 -6 5 -12 5 -7 18 -40
28 -73 14 -46 18 -94 18 -210 1 -136 -9 -257 -21 -278 -2 -4 -6 -18 -9 -31
-18 -99 -102 -287 -166 -369 -52 -68 -137 -145 -197 -179 -31 -18 -57 -35 -59
-40 -2 -4 -8 -8 -13 -8 -4 0 -33 -11 -64 -25 -30 -13 -58 -24 -61 -24 -3 0
-16 -7 -30 -15 -13 -9 -24 -14 -24 -11 0 2 -12 0 -27 -6 -16 -6 -37 -13 -48
-15 -11 -1 -31 -6 -45 -9 -14 -3 -61 -7 -105 -9 -68 -3 -113 3 -227 29 -64 14
-137 59 -175 108 -22 29 -60 74 -84 101 -119 132 -162 229 -205 456 -14 77
-11 264 7 357 29 157 50 224 95 300 29 50 111 134 156 161 15 9 28 20 28 24 0
4 6 8 14 8 8 0 16 4 18 9 5 13 135 90 216 128 70 32 193 76 237 85 40 8 141 6
185 -3z"/>
</g>
</svg>
