<?xml version="1.0" encoding="UTF-8" standalone="no"?>
<!-- Created with Inkscape (http://www.inkscape.org/) -->

<svg
   version="1.1"
   id="svg1"
   width="285.23407"
   height="400.4729"
   viewBox="0 0 285.23406 400.4729"
   xmlns="http://www.w3.org/2000/svg"
   xmlns:svg="http://www.w3.org/2000/svg">
  <defs
     id="defs1" />
  <g
     id="g1"
     transform="translate(-777.91812,-191.38013)">
    <g
       id="group-R5">
      <path
         id="path2"
         d="m 4192.84,3470.97 c 7.28,0 14.57,0.17 21.85,-0.05 8.06,-0.25 10.73,3.04 10.11,11.29 -3.05,39.89 -5.59,79.81 -8.26,119.73 -3.17,47.18 -9.27,94.18 -9.5,141.55 -0.14,30.51 0.06,30.51 -29.71,26.82 -26.86,-3.33 -26.77,-3.34 -30.4,-30.05 -1.11,-8.24 -2.79,-16.4 -4.35,-24.57 -10.32,-54.17 -10.33,-54.17 -64.2,-65.58 -0.51,-0.1 -1.01,-0.26 -1.52,-0.37 -13.19,-2.9 -21.28,2.16 -23.78,15.49 -3.17,16.85 -6.51,33.68 -9.1,50.63 -5.53,36.26 -5.35,36.29 -41.76,25.81 -22.01,-6.34 -21.72,-6.41 -20.11,-28.46 3.33,-45.6 6.66,-91.2 12.31,-136.6 4.3,-34.55 8.23,-69.14 12.64,-103.67 0.6,-4.73 -0.18,-11.06 6.45,-12.81 14.09,-3.71 31.42,8.68 33.03,23.25 3.21,28.95 5.47,57.95 6.86,87.06 1.09,22.74 4.54,26.38 26.66,31.94 15.11,3.8 30.39,7.34 45.81,9.34 20.94,2.72 27.79,-3.07 29.27,-23.94 2.02,-28.54 3.26,-57.13 4.71,-85.71 1.65,-32.39 1.59,-32.4 32.99,-31.1 z m -147.4,300.36 c 23.29,1.78 26.02,-8.41 31.95,-28.39 4.99,-16.84 6.61,-34.65 10.28,-51.91 1.13,-5.3 -0.63,-14.17 9.32,-12.92 7.84,0.98 15.4,3.14 17.1,12.98 3.36,19.45 8.07,38.72 10.3,58.28 3.89,34.16 3.24,34.47 37.74,41.31 13.22,2.63 26.65,4.55 40.08,5.65 25.51,2.1 40.47,-8.83 42.27,-33.84 3.1,-42.99 4.52,-86.13 5.89,-129.23 1.54,-48.38 10.19,-96.02 14.27,-144.15 3.16,-37.32 1,-42.87 -35.55,-47.8 -19.56,-2.64 -39.26,-4.28 -58.89,-6.46 -15.47,-1.72 -22.79,7.09 -29.08,34.11 -6.47,27.8 -6.29,56.74 -7.22,85.33 -0.29,9.13 3.47,23.23 -4.46,25.81 -8.08,2.63 -19.48,-4.62 -29.32,-7.87 -4.7,-1.55 -5.2,-6.06 -5.75,-10.24 -4.18,-31.43 -8.89,-62.79 -12.38,-94.28 -3.26,-29.36 -10.56,-37.91 -39.72,-42.66 -35.74,-5.83 -52.67,5.63 -57.51,41.69 -10.87,80.83 -20.29,161.84 -22.74,243.48 -0.15,5.18 -0.74,10.38 -1.56,15.5 -3.55,22.28 -3.61,22.29 18.54,30.52 21.49,7.99 43.51,13.63 66.44,15.09"
         style="fill:#231f20;fill-opacity:1;fill-rule:nonzero;stroke:none"
         transform="matrix(0.13333333,0,0,-0.13333333,0,746.66667)" />
      <path
         id="path3"
         d="m 3811.38,3650.65 c -3.67,9.57 -6.94,21.22 -12.44,31.7 -10.18,19.42 -14.41,19.95 -34.18,10.83 -36.43,-16.79 -70.43,-37.95 -104.73,-58.46 -41.01,-24.54 -80.73,-51.14 -118.66,-80.37 -12.05,-9.28 -15.07,-17.51 -5.25,-30.54 7.74,-10.27 13.54,-22.12 19.39,-33.68 4.88,-9.66 8.9,-11.11 18.52,-4.07 18.4,13.46 37.93,25.52 57.69,36.95 16.78,9.7 25.97,6.05 36.44,-9 27.37,-39.28 50.9,-80.86 74.25,-122.53 5.77,-10.31 10.76,-10.84 20.68,-5.81 14.98,7.59 28.57,16.52 41.24,27.6 8.88,7.77 9.15,14.11 4.1,24.06 -22.31,43.98 -44.07,88.24 -65.62,132.6 -7.63,15.7 -5.43,22.36 9.26,30.78 19.06,10.93 35.25,25.67 52.71,38.72 3.11,2.32 7.52,4.23 6.6,11.22 z m -26.95,74.02 c 22.12,0.36 39.58,-11.09 48.74,-31.68 6.76,-15.18 13.77,-30.24 20.67,-45.35 4.73,-10.35 4.68,-17.72 -5.72,-26.78 -17.29,-15.06 -33.96,-30.56 -54.19,-41.66 -6.21,-3.4 -7.21,-7.39 -3.95,-13.96 22.58,-45.63 34.58,-95.75 59.77,-140.33 6.55,-11.6 2.27,-26.57 -9.41,-34.23 -16.94,-11.11 -34.26,-21.66 -51.69,-31.98 -29.13,-17.23 -41.56,-13.87 -63.96,18.25 -14.52,20.81 -25.7,43.92 -38.69,65.82 -8.21,13.85 -17.3,27.19 -25.41,41.09 -5.03,8.63 -10.28,10.13 -18.42,3.96 -9.93,-7.53 -20.34,-14.43 -30.62,-21.49 -7.28,-5 -14.41,-10.29 -22.08,-14.62 -20.79,-11.72 -28.81,-8.65 -41.91,10.95 -13.61,20.37 -23.79,42.67 -37.33,62.97 -7.67,11.5 -6.34,20.99 2.9,30.69 22.08,23.18 48.54,40.76 74.81,58.47 55.17,37.21 111.23,73 171.54,101.56 7.95,3.76 15.8,8.04 24.95,8.32"
         style="fill:#231f20;fill-opacity:1;fill-rule:nonzero;stroke:none"
         transform="matrix(0.13333333,0,0,-0.13333333,0,746.66667)" />
      <path
         id="path4"
         d="m 4430.44,3720.47 c -11.16,3.76 -14.53,-3.42 -16.96,-13.98 -5.48,-23.77 -11.93,-47.32 -18.05,-70.94 -14.19,-54.79 -26.79,-109.94 -37.32,-165.56 -2.05,-10.82 0.86,-15.96 12.38,-18.37 17.73,-3.71 35.09,-9.32 52.48,-14.53 31.68,-9.49 31.18,-9.39 46.03,19.86 4.7,9.26 2.36,12 -6.22,15.45 -17.79,7.15 -36.64,11.45 -53.73,20.55 -7.66,4.08 -12.03,9.87 -8.46,17.46 7.69,16.31 9.23,34 13.13,51.11 3.31,14.55 10.95,18.7 24.78,14.78 10.97,-3.12 22.08,-5.99 33.3,-7.96 13.91,-2.44 14.66,10.92 19.31,18.43 5.01,8.11 -4.75,8.74 -8.68,10.98 -13.08,7.44 -26.79,13.71 -39.17,22.46 -5.77,4.07 -8.7,8.7 -7.2,15.71 1.63,7.62 3.07,15.29 5.07,22.81 2.26,8.55 7.85,12.67 17.04,12.9 13.73,0.33 26.67,-4.15 40.03,-5.58 33.86,-3.61 28.73,-5.33 37.2,25.27 2.43,8.75 0.02,12.15 -8.32,14.25 -31.3,7.91 -62.92,13.52 -96.64,14.9 z m 38.83,-89.71 c 10.7,-5.97 21.4,-11.94 32.1,-17.92 6.42,-3.59 11.88,-7.81 15.35,-14.84 10.06,-20.35 5.87,-47.82 -12.72,-60.68 -11.08,-7.66 -25.82,-5.59 -39.14,-3.09 -16.99,3.19 -28.17,-7.04 -26.89,-24.53 0.39,-5.28 4.64,-5.08 7.58,-6.29 12.96,-5.37 26.35,-9.76 39.09,-15.58 27.63,-12.63 36.47,-29.18 15.86,-56.41 -37.16,-49.1 -39.23,-50.74 -97.05,-30.43 -15.66,5.49 -31.44,10.7 -46.83,16.87 -19.86,7.97 -25.76,18.43 -22.9,40.23 8.39,64.06 25.8,126.15 41.98,188.49 6.79,26.14 15.31,51.93 20.34,78.39 2.64,13.87 10.1,17.86 21.07,17.4 42.63,-1.81 85.16,-5.58 126.04,-18.74 21.59,-6.96 30.13,-25.11 24.09,-46.97 -2.63,-9.51 -6.07,-18.81 -8.22,-28.41 -3.51,-15.67 -12.98,-21.2 -28.43,-19.3 -10.3,1.27 -20.78,1.04 -31.11,2.09 -9.6,0.97 -19.12,2.75 -28.67,4.17 -0.51,-1.48 -1.02,-2.97 -1.54,-4.45"
         style="fill:#231f20;fill-opacity:1;fill-rule:nonzero;stroke:none"
         transform="matrix(0.13333333,0,0,-0.13333333,0,746.66667)" />
      <path
         id="path5"
         d="m 4168.71,1633.66 c 0.17,-0.03 0.34,-0.06 0.51,-0.08 0,-7.27 -0.13,-14.55 0.05,-21.82 0.09,-3.68 0.64,-6.64 5.63,-7.72 23.3,-5.04 37.62,6.08 38.06,30.09 0.04,2.08 -0.14,4.18 0.06,6.24 1.97,20.67 3.99,41.33 6.01,62 0.67,6.81 3.42,12.3 10.84,13.22 7.09,0.88 11.95,-3.2 14.83,-9.23 2.9,-6.08 5.12,-12.48 7.58,-18.76 9.84,-25.15 19.62,-50.32 29.57,-75.43 1.24,-3.15 1.79,-7.9 6.35,-7.72 4.36,0.17 5.02,4.74 6.22,8.01 1.43,3.89 2.4,7.96 3.42,11.98 8.82,34.78 15.61,69.96 21.33,105.37 1.23,7.66 2.23,16.44 12.36,17.36 9.99,0.9 13,-7.26 15.58,-14.67 7.86,-22.56 15.63,-45.16 22.99,-67.89 10,-30.83 9.52,-30.3 38.61,-15.09 11.32,5.92 12.62,11.78 8.47,23.19 -22.9,62.98 -53.87,122.78 -73.73,186.95 -0.97,3.15 -1.68,6.95 -7.07,6.59 -12.96,-0.85 -33.34,-18.87 -34.89,-32.06 -3.51,-29.91 -6.51,-59.88 -10.16,-89.78 -0.91,-7.51 -1.36,-16.79 -11.07,-18.58 -10.04,-1.86 -12.93,7.03 -16.31,13.86 -13.79,27.93 -23.5,57.82 -40.12,84.37 -3.32,5.31 -2.85,16.47 -14.01,12.57 -9.89,-3.46 -20.47,-5.15 -21.88,-20.14 -5.73,-61.01 -12.71,-121.9 -19.23,-182.83 z m 104.72,146.14 c 1.8,19.58 3.37,39.18 5.46,58.73 2.8,26.17 39.97,55.36 66.33,52.58 12.18,-1.28 21.1,-6.42 27.28,-17.66 11.62,-21.09 18.17,-44.12 27.12,-66.22 15.99,-39.51 33.21,-78.43 52.86,-116.27 3.11,-5.98 6.03,-12.11 8.5,-18.38 10.93,-27.78 8.96,-32.71 -16.81,-46.33 -16.97,-8.97 -33.34,-19.16 -50.66,-27.33 -15.91,-7.51 -24.95,-4.74 -28.98,14.24 -3.44,16.26 -12.01,31.44 -18.82,48.35 -6.95,-20.38 -13.21,-39.55 -20.08,-58.5 -2.46,-6.77 -5.73,-13.43 -9.75,-19.4 -5.98,-8.88 -16,-9.88 -25.65,-12.64 -14.56,-4.16 -15.48,6.33 -20.81,14.39 -10.14,15.38 -13.38,33.6 -23.67,53.37 -1.47,-18.27 -3.14,-32.73 -3.66,-47.23 -0.51,-14.36 -6.89,-22.14 -21.4,-23.52 -17.1,-1.63 -34.13,-2.96 -51.36,-1.55 -15.17,1.25 -21.05,8.48 -22.28,23.86 -2.37,29.8 0.66,59.18 3.9,88.56 5.47,49.54 12.13,98.94 17.48,148.49 1.09,10.13 4.82,16.51 13.79,20.39 8.56,3.71 16.86,8.17 25.67,11.1 12.42,4.12 21.98,0.5 28.34,-11.84 11.62,-22.53 24.52,-44.41 37.2,-67.19"
         style="fill:#231f20;fill-opacity:1;fill-rule:nonzero;stroke:none"
         transform="matrix(0.13333333,0,0,-0.13333333,0,746.66667)" />
      <path
         id="path6"
         d="m 3518.78,1887.08 c 0.04,-6.56 -3.15,-12.05 -6.19,-17.45 -27.54,-48.93 -54.97,-97.91 -82.95,-146.58 -6.48,-11.27 -5.25,-18.12 6.15,-25.14 10.6,-6.54 17.38,-9.33 26.64,3.12 31.04,41.72 63.4,82.44 92.33,125.72 9.87,14.77 15.15,15.46 28.75,4.03 16.43,-13.82 34.9,-24.37 53.13,-35.42 6.92,-4.19 11.43,-4.62 16.74,2.65 10.1,13.85 21,27.14 31.96,40.34 4.09,4.93 4.79,8.17 -0.66,12.71 -11.59,9.64 -22.07,20.65 -33.99,29.82 -51.93,39.93 -104.29,79.31 -156.27,119.16 -5.04,3.87 -7.59,4.14 -10.49,-1.66 -7.51,-15.02 -18.59,-27.61 -29.03,-40.49 -6.85,-8.44 -4.8,-12.88 3.15,-18.16 16.46,-10.94 32.63,-22.3 48.77,-33.69 6.51,-4.59 12.07,-10.07 11.96,-18.96 z m 201.62,-49.98 c 0.25,-10.78 -2.14,-16.82 -6.07,-22.62 -13.54,-19.99 -31.08,-36.23 -48.8,-52.26 -9.96,-9.01 -21.3,-7.14 -32.04,-1.67 -15.71,8 -31.38,16.16 -46.48,25.25 -7.99,4.81 -11.2,2.46 -15.52,-4.64 -24.99,-40.99 -54.91,-78.17 -88.47,-112.45 -17.3,-17.67 -24.19,-19.24 -46.8,-8.92 -8.92,4.07 -17.53,9.07 -25.65,14.58 -18.3,12.4 -19.9,19.38 -10.85,39.05 19.17,41.61 45.03,79.49 66.66,119.74 6.15,11.43 12.14,23 19.16,33.89 5.1,7.92 2.67,11.85 -4.67,15.68 -17.64,9.21 -32.91,21.49 -46.74,35.87 -11.9,12.37 -14.35,28.22 -3.65,42.56 15.84,21.22 32.61,41.74 45.21,65.2 5.03,9.36 12.85,11.87 19.97,3.54 22.98,-26.93 53.11,-44.88 81.21,-65.16 45.09,-32.54 89.51,-65.81 131.41,-102.42 9.13,-7.99 10.93,-18.18 12.12,-25.22"
         style="fill:#231f20;fill-opacity:1;fill-rule:nonzero;stroke:none"
         transform="matrix(0.13333333,0,0,-0.13333333,0,746.66667)" />
      <path
         id="path7"
         d="m 4042.41,1824.78 c -9.09,0 -16.52,-0.92 -23.63,0.19 -13.63,2.14 -19.73,-4.21 -22.95,-16.5 -3.54,-13.56 -8.22,-26.81 -12.32,-40.22 -16.87,-55.15 -33.81,-110.27 -50.34,-165.52 -1.33,-4.44 -5.31,-9.76 -0.7,-14.56 9.26,-9.62 31.37,-4.96 36.11,7.65 10.07,26.75 19.63,53.69 29.96,80.33 7.16,18.46 16.33,23.77 33.21,20.53 16.3,-3.13 15.2,-16.53 15.65,-28.23 0.87,-22.87 0.53,-45.78 1.47,-68.65 1.27,-30.59 1.59,-30.58 32.03,-30.11 18.82,0.29 18.73,0.28 16.05,19.54 -9.18,65.92 -15,132.14 -18.12,198.62 -0.56,11.86 4.84,27.07 -2.39,34.71 -8.12,8.57 -23.6,1.44 -34.03,2.22 z m -19.81,-187.99 c -9.35,-24.58 -19.26,-48.96 -27.85,-73.8 -5.12,-14.8 -13.75,-19.83 -29.33,-18.67 -15.58,1.16 -30.82,3.1 -46.11,6.18 -10,2.01 -14.35,6.87 -14.88,16.61 -0.85,15.88 2.85,31.15 7.46,45.91 22.12,70.95 44.83,141.72 67.67,212.44 5.21,16.16 14.58,20.03 31.38,19.6 19.17,-0.5 38.45,2.93 57.61,2.29 41.03,-1.36 42.19,-9.69 44.96,-42.11 4.16,-48.66 6.08,-97.52 12.8,-145.96 4.5,-32.42 6.28,-65.24 14.15,-97.15 2.56,-10.39 -0.19,-15.73 -11.06,-19.76 -24.73,-9.16 -49.66,-15.45 -76.11,-12.41 -22.45,2.57 -25.25,9.12 -25.31,31.5 -0.08,24.86 -2.63,49.79 -5.38,75.33"
         style="fill:#231f20;fill-opacity:1;fill-rule:nonzero;stroke:none"
         transform="matrix(0.13333333,0,0,-0.13333333,0,746.66667)" />
      <path
         id="path8"
         d="m 3831.84,1840.25 c 0,0.08 0,0.16 0,0.24 -13.51,0 -27.01,-0.23 -40.51,0.1 -6.86,0.16 -10.02,-1.99 -11.28,-9.3 -11.88,-69.11 -24.06,-138.16 -36.42,-207.17 -2.07,-11.58 2.03,-17.52 13.45,-19.92 18.89,-3.97 38.29,-3.6 57.14,-6.82 16.58,-2.84 22.77,3.52 26.35,18.82 2.51,10.72 0.12,13.83 -9.97,14.38 -15,0.82 -30.09,0.16 -44.96,3.67 -12.62,2.98 -17.48,10.12 -14.74,22.64 3,13.7 6.11,27.37 9.04,41.08 2.59,12.2 9.51,17.45 22.31,16.02 10.81,-1.21 21.86,-0.27 32.67,-1.5 11.86,-1.35 12.06,7.96 14.27,14.71 2.84,8.66 -5.38,6.88 -9.58,8.18 -9.92,3.06 -19.98,5.67 -30.01,8.37 -6.26,1.69 -12.93,4.21 -13.98,10.92 -3.05,19.49 -0.74,39.33 9.62,55.66 8.25,13.01 23.02,2.78 34.91,2.51 2.56,-0.06 5.11,-0.86 7.67,-1.31 21.7,-3.83 22.81,-2.78 31.04,16.9 3.99,9.54 0.99,12 -8.05,11.87 -12.99,-0.19 -25.98,-0.05 -38.97,-0.05 z m -12.89,22.13 c 24.44,1.51 47.75,-1.1 71.1,-2.32 22.49,-1.18 33.27,-21.31 22.48,-41.24 -1.98,-3.65 -4.11,-7.22 -6.02,-10.91 -19.08,-36.95 -13.76,-34.45 -62.05,-32.29 -4.25,0.2 -10.32,5.98 -12.18,-3.4 -1.48,-7.48 0.9,-11.17 8.75,-13.14 11.97,-3 24.82,-3.88 35.17,-11.79 2.86,-2.19 6.73,-4.02 8.14,-6.97 8.83,-18.44 -3.27,-34.12 -8.14,-50.43 -3.12,-10.49 -13.77,-13.25 -24.28,-13.52 -9.34,-0.24 -18.69,-0.63 -28.04,-0.69 -6.94,-0.04 -9.3,-3.12 -10.79,-10.08 -2.11,-9.79 0,-12.77 10.07,-12.49 9.8,0.27 19.69,-1.24 29.49,-2.37 13.31,-1.53 26.24,-15.85 24.77,-29.14 -2.19,-19.83 -9.61,-37.97 -22.49,-53.47 -3.54,-4.26 -9.07,-5.28 -14.35,-4.6 -33.5,4.35 -67.53,2.23 -100.87,8.62 -22.25,4.26 -28,15.15 -23.37,38.09 14.27,70.75 27.47,141.71 41.08,212.59 1.56,8.12 0.75,16.4 1.68,24.64 1.44,12.93 8.01,15.25 18.73,15 14.04,-0.33 28.08,-0.09 41.12,-0.09"
         style="fill:#231f20;fill-opacity:1;fill-rule:nonzero;stroke:none"
         transform="matrix(0.13333333,0,0,-0.13333333,0,746.66667)" />
      <path
         id="path9"
         d="m 4788.6,2172.5 c -17.15,-12.79 -32.13,-28.03 -47.03,-43.34 -69.02,-70.88 -133.15,-146.18 -198.57,-220.31 -9.27,-10.5 -17.12,-27.54 -28.1,-29.86 -12.9,-2.72 -23.01,14.94 -34.24,23.74 -52.39,41.08 -104.42,82.66 -147.04,134.4 -7.24,8.79 -14.01,9.26 -23.77,3.86 -42.47,-23.51 -87.13,-41.88 -134.02,-54.62 -37.17,-10.1 -74.9,-22.49 -113.34,-18.85 -67.15,6.36 -134.66,7.41 -201.53,19.61 -79.49,14.51 -152.33,40.29 -214.12,93.9 -72.24,62.67 -134.84,131.32 -171.07,222.74 -40.56,102.36 -60.6,207.16 -56.09,316.77 0.83,20.14 3.75,40.18 6.3,60.14 26.45,28.28 57.71,49.24 106.54,41.34 4.79,-0.17 12.68,0.26 14.26,9.58 1.73,10.27 -5.96,13.34 -14.15,14.84 -7.67,1.41 -15.54,1.84 -23.11,3.62 -25.79,6.06 -46.51,18.28 -61.41,37.76 4.18,16.11 8.34,31.9 11.04,47.93 5.99,35.56 14.09,70.5 31.71,102.01 0.91,1.63 1.62,3.19 2.32,4.75 21.9,-42.63 34.89,-88.85 40.95,-137.64 1.11,-8.94 1.95,-19.08 13.48,-19.69 11.28,-0.6 15.98,7.87 18.13,17.89 1.85,8.63 3.53,17.33 5.95,25.8 24.93,87.33 61.03,166.94 146.55,212.72 8.81,4.72 10.28,12.77 2.19,20.54 -5.41,5.19 -11.64,9.14 -19.36,8.81 -17.67,-0.75 -32.64,6.67 -46.19,16.35 -18.79,13.41 -35.66,28.3 -49.97,45.08 31.14,37.67 69.11,68.24 107.31,97.82 60.02,46.48 127.9,76.48 204.38,85.16 43.43,4.93 86.92,8.25 130.55,10.68 36.02,2.01 71.79,0.89 107.44,-3.91 63.3,-8.53 123.78,-28.05 183.26,-50.23 68.22,-25.46 127.77,-63.33 175.54,-120.31 34.47,-41.12 68.89,-82.48 99,-126.46 28.75,-42 58.6,-84.58 73.9,-134.45 27.76,-90.47 47.25,-181.76 38.82,-277.67 -6.74,-76.68 -18.7,-151.82 -50.13,-222.45 -6.73,-15.12 -4.16,-25.89 4.35,-36.34 41.79,-51.36 72.06,-110.6 112.35,-162.92 6.56,-8.52 4.54,-13.11 -3.08,-18.79 z m -1411.76,486.81 c -4.67,22.99 -9.2,43.83 -18.15,63.35 -9.85,21.47 -27.09,33.52 -53.13,41.06 23.38,8.55 40.07,20.67 54.43,36.12 14.43,15.52 26.58,32.75 39.34,53.06 7.82,-47.77 25.02,-87.12 68.15,-112.3 -37.23,-19.9 -64.63,-47.77 -90.64,-81.29 z m 24.92,414.72 c 87.35,74.65 87.35,74.65 130.72,164.46 11.72,-42.47 22.54,-83.13 50.53,-115.45 27.37,-31.6 56.65,-61.16 99.33,-74.49 -65.2,-51.65 -104.82,-119.17 -130.9,-200.34 -25.1,94.43 -63.16,176.4 -149.68,225.82 z m 1438.81,-879.02 c -6.5,6.58 -13.05,13.48 -17.86,21.29 -30.49,49.6 -60.48,99.51 -90.74,149.26 -3.17,5.21 -3.99,9.73 -1.71,15.96 33.88,92.65 42.88,189.01 42.11,286.79 -0.37,29.62 -0.51,59.17 -2.69,88.83 -4.52,61.67 -13.93,121.79 -42.11,177.73 -8.65,17.17 -16.64,34.67 -25.01,51.99 -38.26,79.09 -86.96,150.06 -157.73,204.14 -25.27,19.31 -52.62,35.47 -78.43,53.89 -57.54,41.08 -123.63,60.78 -191,77.43 -5.31,1.31 -10.95,2.08 -14.99,-0.2 -69.22,19.96 -139.67,31.86 -213.05,26.95 -32.69,-2.19 -65.4,-4.16 -98.11,-5.89 -55.23,-2.91 -107.42,-17.65 -157.95,-39.37 -63.7,-27.38 -115.59,-71.39 -166.27,-117.17 -12.26,-11.07 -23.34,-23.26 -34.58,-35.32 -12.35,18.2 -21.9,38.47 -27.92,61.31 -6.08,23.11 -12.42,46.14 -18.41,69.27 -1.55,5.98 -3.81,10.86 -10.62,11.7 -7.29,0.89 -11.91,-3.09 -14.66,-9.23 -1.68,-3.74 -2.77,-7.84 -3.54,-11.88 -13.44,-70.02 -53.49,-122.95 -107.61,-166.58 -10.83,-8.73 -22.67,-16.86 -40.69,-15.49 -0.93,-0.05 -4.66,0.23 -8.16,-0.54 -7.37,-1.61 -9.61,-7.53 -9.88,-14.09 -0.25,-5.8 2.45,-9.6 8.81,-10.79 44.65,-8.35 76.63,-35.98 102.83,-70.59 6.55,-8.66 12.58,-17.54 18.2,-26.57 -9.56,-20.44 -19.39,-40.63 -26.85,-62.04 -9.95,-28.53 -11.78,-58.89 -20.18,-87.5 -8.91,24.47 -10.52,50.09 -12.06,75.78 -0.49,8.22 1.58,18.15 -9.36,20.43 -11.99,2.5 -13.84,-8.25 -17.33,-16.14 -1.05,-2.37 -1.86,-4.85 -2.84,-7.26 -13.84,-34.12 -31.9,-65.5 -60.68,-89.35 -21.64,-17.93 -46.95,-24.55 -74.33,-18.29 -11.46,2.61 -18.17,4.18 -21.36,-10.37 -3.21,-14.64 3.33,-18.79 15.47,-20.58 21.12,-3.12 41.81,-8.04 61.95,-15.28 12.56,-4.52 21.17,-12.94 26.44,-24.89 12.83,-29.12 19.14,-59.2 13.18,-91.09 -1.91,-10.2 -3.84,-20.43 -4.99,-30.73 -0.88,-7.92 -0.76,-16.95 9.66,-18.23 8.94,-1.1 12.44,5.81 13.73,13.75 3.77,23.23 14.6,43.73 28.82,61.51 0.5,0.62 0.99,1.23 1.48,1.85 -3.46,-31.75 -5.18,-63.52 -3.39,-95.76 4.27,-76.53 18.79,-150.28 43.88,-221.28 -0.64,-4.25 0.89,-9.51 1.09,-13.89 0.08,-2.03 0.96,-4.03 1.46,-6.05 7.32,-29.59 22.29,-55.87 35.66,-82.87 70.09,-141.51 183.67,-234.13 328.94,-289.99 58.47,-22.48 119.77,-34.77 184.36,-40.51 76.06,9.07 154.34,16.07 230.22,37.89 37.59,10.81 73.29,26.59 108.93,42.42 5.23,2.32 9.44,8.08 11.77,14.34 18.27,-18.78 37.7,-36.39 57.39,-53.62 31.7,-27.74 64.48,-54.3 97.42,-80.59 7.83,-6.25 26.11,-14.37 31.63,-14.75 12.11,-0.84 21.85,1.98 30.35,11.78 54.56,62.91 112.53,122.67 169.68,183.21 38.19,40.44 78.12,79.37 111.92,123.88 8.74,11.52 10.27,20.72 -0.29,31.39"
         style="fill:#231f20;fill-opacity:1;fill-rule:nonzero;stroke:none"
         transform="matrix(0.13333333,0,0,-0.13333333,0,746.66667)" />
      <path
         id="path10"
         d="m 4278.05,2487.32 c -19.3,-34.69 -45.6,-63.39 -80.76,-82.5 -31.54,-17.13 -64.02,-32.93 -99.88,-38.71 -47.07,-7.59 -91.1,1.12 -130.31,23.13 -6.2,8.82 -12.2,16.63 -18.72,24.06 -22.27,25.35 -46.13,49.38 -57.59,82.52 -20.75,59.98 -25.57,121.15 -11.71,182.83 7.73,34.44 18.13,70.08 45.28,94.34 44.57,39.84 96,69.45 153.65,87.03 26.5,8.08 53.18,8.44 79.96,0.32 17.52,-5.31 35.25,-9.92 52.94,-14.67 63.9,-39.42 106.93,-111.85 107.55,-187.45 0.49,-60.42 -10.89,-117.85 -40.41,-170.9 z m -44.83,371.33 c -1.98,5.09 -8.51,7.03 -13.95,8.87 -40.93,24.1 -88.48,35.58 -141.65,35.91 -15.77,0.21 -31.27,-1.07 -46.79,-3.12 -75,-9.91 -137.43,-41.17 -181.41,-104.81 -50.15,-72.56 -68.09,-151.08 -42.34,-236.73 16.93,-56.3 47.06,-106.23 89.94,-145.87 71.64,-66.22 154.57,-90.74 250.21,-56.48 78.98,28.3 137.67,77.01 168.64,157.19 13.12,33.98 20.23,68.65 23.68,104.41 5.79,60.12 -2.68,117.74 -36.73,168.79 -19.99,29.97 -43.29,53.76 -69.6,71.84"
         style="fill:#231f20;fill-opacity:1;fill-rule:nonzero;stroke:none"
         transform="matrix(0.13333333,0,0,-0.13333333,0,746.66667)" />
      <path
         id="path11"
         d="M 2920.22,1094.4 H 636.285 V 4231.37 H 2920.22 V 1094.4"
         style="fill:#231f20;fill-opacity:1;fill-rule:nonzero;stroke:none"
         transform="matrix(0.13333333,0,0,-0.13333333,0,746.66667)" />
      <path
         id="path12"
         d="m 1930.61,3470.97 c 7.29,0 14.58,0.17 21.86,-0.05 8.06,-0.25 10.73,3.04 10.1,11.29 -3.04,39.89 -5.58,79.81 -8.26,119.73 -3.16,47.18 -9.27,94.18 -9.49,141.55 -0.14,30.51 0.06,30.51 -29.71,26.82 -26.87,-3.33 -26.78,-3.34 -30.4,-30.05 -1.12,-8.24 -2.79,-16.4 -4.35,-24.57 -10.32,-54.17 -10.33,-54.17 -64.21,-65.58 -0.51,-0.1 -1.01,-0.26 -1.51,-0.37 -13.19,-2.9 -21.28,2.16 -23.79,15.49 -3.16,16.85 -6.51,33.68 -9.09,50.63 -5.53,36.26 -5.35,36.29 -41.76,25.81 -22.02,-6.34 -21.73,-6.41 -20.12,-28.46 3.33,-45.6 6.66,-91.2 12.31,-136.6 4.3,-34.55 8.24,-69.14 12.64,-103.67 0.61,-4.73 -0.18,-11.06 6.46,-12.81 14.09,-3.71 31.42,8.68 33.03,23.25 3.2,28.95 5.47,57.95 6.86,87.06 1.09,22.74 4.54,26.38 26.65,31.94 15.11,3.8 30.4,7.34 45.82,9.34 20.94,2.72 27.79,-3.07 29.27,-23.94 2.02,-28.54 3.26,-57.13 4.71,-85.71 1.64,-32.39 1.58,-32.4 32.98,-31.1 z m -147.39,300.36 c 23.28,1.78 26.02,-8.41 31.94,-28.39 4.99,-16.84 6.61,-34.65 10.29,-51.91 1.13,-5.3 -0.63,-14.17 9.32,-12.92 7.84,0.98 15.39,3.14 17.1,12.98 3.35,19.45 8.07,38.72 10.3,58.28 3.89,34.16 3.23,34.47 37.74,41.31 13.22,2.63 26.65,4.55 40.07,5.65 25.52,2.1 40.48,-8.83 42.28,-33.84 3.1,-42.99 4.52,-86.13 5.89,-129.23 1.54,-48.38 10.18,-96.02 14.27,-144.15 3.16,-37.32 1,-42.87 -35.55,-47.8 -19.57,-2.64 -39.27,-4.28 -58.9,-6.46 -15.47,-1.72 -22.79,7.09 -29.08,34.11 -6.47,27.8 -6.28,56.74 -7.21,85.33 -0.3,9.13 3.47,23.23 -4.46,25.81 -8.08,2.63 -19.48,-4.62 -29.32,-7.87 -4.7,-1.55 -5.2,-6.06 -5.76,-10.24 -4.18,-31.43 -8.88,-62.79 -12.38,-94.28 -3.26,-29.36 -10.55,-37.91 -39.72,-42.66 -35.74,-5.83 -52.66,5.63 -57.51,41.69 -10.87,80.83 -20.28,161.84 -22.73,243.48 -0.16,5.18 -0.75,10.38 -1.56,15.5 -3.55,22.28 -3.62,22.29 18.54,30.52 21.49,7.99 43.5,13.63 66.44,15.09"
         style="fill:#ffffff;fill-opacity:1;fill-rule:nonzero;stroke:none"
         transform="matrix(0.13333333,0,0,-0.13333333,0,746.66667)" />
      <path
         id="path13"
         d="m 1549.16,3650.65 c -3.68,9.57 -6.95,21.22 -12.44,31.7 -10.18,19.42 -14.42,19.95 -34.18,10.83 -36.43,-16.79 -70.44,-37.95 -104.73,-58.46 -41.02,-24.54 -80.73,-51.14 -118.67,-80.37 -12.04,-9.28 -15.06,-17.51 -5.25,-30.54 7.75,-10.27 13.55,-22.12 19.39,-33.68 4.89,-9.66 8.9,-11.11 18.53,-4.07 18.4,13.46 37.92,25.52 57.68,36.95 16.78,9.7 25.97,6.05 36.45,-9 27.36,-39.28 50.9,-80.86 74.24,-122.53 5.78,-10.31 10.76,-10.84 20.69,-5.81 14.97,7.59 28.57,16.52 41.24,27.6 8.88,7.77 9.14,14.11 4.1,24.06 -22.31,43.98 -44.07,88.24 -65.62,132.6 -7.63,15.7 -5.43,22.36 9.26,30.78 19.06,10.93 35.25,25.67 52.7,38.72 3.11,2.32 7.53,4.23 6.61,11.22 z m -26.95,74.02 c 22.11,0.36 39.58,-11.09 48.74,-31.68 6.75,-15.18 13.77,-30.24 20.67,-45.35 4.73,-10.35 4.67,-17.72 -5.72,-26.78 -17.29,-15.06 -33.96,-30.56 -54.19,-41.66 -6.21,-3.4 -7.21,-7.39 -3.96,-13.96 22.58,-45.63 34.58,-95.75 59.77,-140.33 6.56,-11.6 2.28,-26.57 -9.41,-34.23 -16.93,-11.11 -34.25,-21.66 -51.69,-31.98 -29.12,-17.23 -41.55,-13.87 -63.95,18.25 -14.52,20.81 -25.7,43.92 -38.69,65.82 -8.21,13.85 -17.3,27.19 -25.41,41.09 -5.03,8.63 -10.28,10.13 -18.42,3.96 -9.93,-7.53 -20.34,-14.43 -30.62,-21.49 -7.28,-5 -14.41,-10.29 -22.08,-14.62 -20.79,-11.72 -28.82,-8.65 -41.91,10.95 -13.61,20.37 -23.79,42.67 -37.33,62.97 -7.68,11.5 -6.34,20.99 2.9,30.69 22.08,23.18 48.54,40.76 74.8,58.47 55.17,37.21 111.24,73 171.55,101.56 7.95,3.76 15.8,8.04 24.95,8.32"
         style="fill:#ffffff;fill-opacity:1;fill-rule:nonzero;stroke:none"
         transform="matrix(0.13333333,0,0,-0.13333333,0,746.66667)" />
      <path
         id="path14"
         d="m 2168.22,3720.47 c -11.17,3.76 -14.53,-3.42 -16.97,-13.98 -5.47,-23.77 -11.92,-47.32 -18.04,-70.94 -14.2,-54.79 -26.8,-109.94 -37.33,-165.56 -2.04,-10.82 0.87,-15.96 12.39,-18.37 17.73,-3.71 35.08,-9.32 52.48,-14.53 31.67,-9.49 31.18,-9.39 46.02,19.86 4.7,9.26 2.37,12 -6.21,15.45 -17.79,7.15 -36.64,11.45 -53.73,20.55 -7.66,4.08 -12.04,9.87 -8.46,17.46 7.68,16.31 9.23,34 13.12,51.11 3.32,14.55 10.96,18.7 24.78,14.78 10.98,-3.12 22.08,-5.99 33.31,-7.96 13.91,-2.44 14.65,10.92 19.3,18.43 5.02,8.11 -4.74,8.74 -8.68,10.98 -13.07,7.44 -26.78,13.71 -39.16,22.46 -5.77,4.07 -8.7,8.7 -7.2,15.71 1.63,7.62 3.07,15.29 5.06,22.81 2.27,8.55 7.85,12.67 17.05,12.9 13.73,0.33 26.67,-4.15 40.02,-5.58 33.86,-3.61 28.74,-5.33 37.21,25.27 2.42,8.75 0.01,12.15 -8.32,14.25 -31.31,7.91 -62.93,13.52 -96.64,14.9 z m 38.83,-89.71 c 10.7,-5.97 21.4,-11.94 32.09,-17.92 6.43,-3.59 11.89,-7.81 15.36,-14.84 10.05,-20.35 5.87,-47.82 -12.72,-60.68 -11.09,-7.66 -25.82,-5.59 -39.14,-3.09 -16.99,3.19 -28.17,-7.04 -26.89,-24.53 0.39,-5.28 4.63,-5.08 7.58,-6.29 12.96,-5.37 26.34,-9.76 39.08,-15.58 27.64,-12.63 36.48,-29.18 15.87,-56.41 -37.17,-49.1 -39.23,-50.74 -97.05,-30.43 -15.66,5.49 -31.45,10.7 -46.84,16.87 -19.86,7.97 -25.75,18.43 -22.9,40.23 8.4,64.06 25.8,126.15 41.99,188.49 6.79,26.14 15.31,51.93 20.34,78.39 2.63,13.87 10.09,17.86 21.06,17.4 42.64,-1.81 85.16,-5.58 126.05,-18.74 21.59,-6.96 30.12,-25.11 24.08,-46.97 -2.62,-9.51 -6.06,-18.81 -8.21,-28.41 -3.51,-15.67 -12.99,-21.2 -28.44,-19.3 -10.3,1.27 -20.77,1.04 -31.11,2.09 -9.59,0.97 -19.11,2.75 -28.66,4.17 -0.51,-1.48 -1.03,-2.97 -1.54,-4.45"
         style="fill:#ffffff;fill-opacity:1;fill-rule:nonzero;stroke:none"
         transform="matrix(0.13333333,0,0,-0.13333333,0,746.66667)" />
      <path
         id="path15"
         d="m 1906.49,1633.66 c 0.17,-0.03 0.34,-0.06 0.5,-0.08 0,-7.27 -0.12,-14.55 0.06,-21.82 0.08,-3.68 0.64,-6.64 5.63,-7.72 23.3,-5.04 37.62,6.08 38.06,30.09 0.03,2.08 -0.14,4.18 0.06,6.24 1.97,20.67 3.99,41.33 6.01,62 0.67,6.81 3.41,12.3 10.83,13.22 7.09,0.88 11.96,-3.2 14.84,-9.23 2.89,-6.08 5.11,-12.48 7.57,-18.76 9.85,-25.15 19.62,-50.32 29.57,-75.43 1.25,-3.15 1.79,-7.9 6.35,-7.72 4.37,0.17 5.03,4.74 6.23,8.01 1.42,3.89 2.4,7.96 3.42,11.98 8.82,34.78 15.61,69.96 21.32,105.37 1.24,7.66 2.23,16.44 12.36,17.36 9.99,0.9 13.01,-7.26 15.59,-14.67 7.86,-22.56 15.62,-45.16 22.99,-67.89 10,-30.83 9.52,-30.3 38.6,-15.09 11.32,5.92 12.62,11.78 8.47,23.19 -22.89,62.98 -53.87,122.78 -73.72,186.95 -0.97,3.15 -1.69,6.95 -7.07,6.59 -12.96,-0.85 -33.34,-18.87 -34.89,-32.06 -3.51,-29.91 -6.51,-59.88 -10.16,-89.78 -0.92,-7.51 -1.37,-16.79 -11.07,-18.58 -10.04,-1.86 -12.94,7.03 -16.31,13.86 -13.79,27.93 -23.51,57.82 -40.12,84.37 -3.32,5.31 -2.85,16.47 -14.01,12.57 -9.89,-3.46 -20.48,-5.15 -21.89,-20.14 -5.73,-61.01 -12.7,-121.9 -19.22,-182.83 z m 104.72,146.14 c 1.8,19.58 3.36,39.18 5.46,58.73 2.8,26.17 39.97,55.36 66.33,52.58 12.18,-1.28 21.09,-6.42 27.28,-17.66 11.61,-21.09 18.17,-44.12 27.12,-66.22 15.99,-39.51 33.2,-78.43 52.86,-116.27 3.11,-5.98 6.02,-12.11 8.49,-18.38 10.94,-27.78 8.97,-32.71 -16.81,-46.33 -16.96,-8.97 -33.33,-19.16 -50.65,-27.33 -15.91,-7.51 -24.96,-4.74 -28.98,14.24 -3.45,16.26 -12.01,31.44 -18.82,48.35 -6.95,-20.38 -13.22,-39.55 -20.09,-58.5 -2.45,-6.77 -5.72,-13.43 -9.74,-19.4 -5.99,-8.88 -16,-9.88 -25.65,-12.64 -14.56,-4.16 -15.49,6.33 -20.81,14.39 -10.15,15.38 -13.39,33.6 -23.67,53.37 -1.47,-18.27 -3.15,-32.73 -3.66,-47.23 -0.51,-14.36 -6.9,-22.14 -21.41,-23.52 -17.1,-1.63 -34.12,-2.96 -51.35,-1.55 -15.17,1.25 -21.06,8.48 -22.28,23.86 -2.38,29.8 0.66,59.18 3.9,88.56 5.46,49.54 12.13,98.94 17.48,148.49 1.09,10.13 4.82,16.51 13.79,20.39 8.56,3.71 16.86,8.17 25.67,11.1 12.41,4.12 21.98,0.5 28.34,-11.84 11.62,-22.53 24.51,-44.41 37.2,-67.19"
         style="fill:#ffffff;fill-opacity:1;fill-rule:nonzero;stroke:none"
         transform="matrix(0.13333333,0,0,-0.13333333,0,746.66667)" />
      <path
         id="path16"
         d="m 1256.55,1887.08 c 0.04,-6.56 -3.15,-12.05 -6.19,-17.45 -27.53,-48.93 -54.96,-97.91 -82.94,-146.58 -6.48,-11.27 -5.26,-18.12 6.14,-25.14 10.61,-6.54 17.39,-9.33 26.65,3.12 31.04,41.72 63.4,82.44 92.33,125.72 9.87,14.77 15.15,15.46 28.75,4.03 16.43,-13.82 34.9,-24.37 53.13,-35.42 6.91,-4.19 11.43,-4.62 16.73,2.65 10.11,13.85 21.01,27.14 31.97,40.34 4.09,4.93 4.79,8.17 -0.67,12.71 -11.58,9.64 -22.07,20.65 -33.99,29.82 -51.93,39.93 -104.28,79.31 -156.26,119.16 -5.05,3.87 -7.59,4.14 -10.49,-1.66 -7.51,-15.02 -18.59,-27.61 -29.03,-40.49 -6.85,-8.44 -4.8,-12.88 3.15,-18.16 16.45,-10.94 32.63,-22.3 48.77,-33.69 6.51,-4.59 12.07,-10.07 11.95,-18.96 z m 201.62,-49.98 c 0.26,-10.78 -2.14,-16.82 -6.06,-22.62 -13.55,-19.99 -31.08,-36.23 -48.81,-52.26 -9.96,-9.01 -21.29,-7.14 -32.03,-1.67 -15.72,8 -31.39,16.16 -46.48,25.25 -7.99,4.81 -11.2,2.46 -15.53,-4.64 -24.98,-40.99 -54.9,-78.17 -88.46,-112.45 -17.3,-17.67 -24.19,-19.24 -46.8,-8.92 -8.92,4.07 -17.53,9.07 -25.66,14.58 -18.3,12.4 -19.9,19.38 -10.84,39.05 19.17,41.61 45.03,79.49 66.66,119.74 6.14,11.43 12.14,23 19.15,33.89 5.11,7.92 2.67,11.85 -4.66,15.68 -17.64,9.21 -32.91,21.49 -46.74,35.87 -11.9,12.37 -14.36,28.22 -3.65,42.56 15.84,21.22 32.6,41.74 45.21,65.2 5.03,9.36 12.84,11.87 19.96,3.54 22.99,-26.93 53.12,-44.88 81.22,-65.16 45.09,-32.54 89.51,-65.81 131.4,-102.42 9.14,-7.99 10.94,-18.18 12.12,-25.22"
         style="fill:#ffffff;fill-opacity:1;fill-rule:nonzero;stroke:none"
         transform="matrix(0.13333333,0,0,-0.13333333,0,746.66667)" />
      <path
         id="path17"
         d="m 1780.19,1824.78 c -9.1,0 -16.52,-0.92 -23.63,0.19 -13.63,2.14 -19.73,-4.21 -22.95,-16.5 -3.54,-13.56 -8.23,-26.81 -12.33,-40.22 -16.86,-55.15 -33.8,-110.27 -50.34,-165.52 -1.32,-4.44 -5.3,-9.76 -0.69,-14.56 9.26,-9.62 31.37,-4.96 36.11,7.65 10.07,26.75 19.62,53.69 29.96,80.33 7.15,18.46 16.32,23.77 33.21,20.53 16.3,-3.13 15.2,-16.53 15.65,-28.23 0.87,-22.87 0.52,-45.78 1.47,-68.65 1.26,-30.59 1.59,-30.58 32.03,-30.11 18.82,0.29 18.72,0.28 16.04,19.54 -9.17,65.92 -14.99,132.14 -18.11,198.62 -0.56,11.86 4.84,27.07 -2.4,34.71 -8.11,8.57 -23.6,1.44 -34.02,2.22 z m -19.81,-187.99 c -9.36,-24.58 -19.27,-48.96 -27.85,-73.8 -5.12,-14.8 -13.76,-19.83 -29.33,-18.67 -15.58,1.16 -30.82,3.1 -46.11,6.18 -10.01,2.01 -14.35,6.87 -14.88,16.61 -0.85,15.88 2.85,31.15 7.45,45.91 22.13,70.95 44.83,141.72 67.67,212.44 5.22,16.16 14.59,20.03 31.38,19.6 19.18,-0.5 38.46,2.93 57.61,2.29 41.03,-1.36 42.2,-9.69 44.97,-42.11 4.15,-48.66 6.07,-97.52 12.8,-145.96 4.5,-32.42 6.28,-65.24 14.14,-97.15 2.56,-10.39 -0.18,-15.73 -11.05,-19.76 -24.74,-9.16 -49.66,-15.45 -76.12,-12.41 -22.45,2.57 -25.24,9.12 -25.31,31.5 -0.07,24.86 -2.62,49.79 -5.37,75.33"
         style="fill:#ffffff;fill-opacity:1;fill-rule:nonzero;stroke:none"
         transform="matrix(0.13333333,0,0,-0.13333333,0,746.66667)" />
      <path
         id="path18"
         d="m 1569.62,1840.25 c 0,0.08 0,0.16 -0.01,0.24 -13.5,0 -27.01,-0.23 -40.5,0.1 -6.86,0.16 -10.02,-1.99 -11.28,-9.3 -11.88,-69.11 -24.07,-138.16 -36.42,-207.17 -2.07,-11.58 2.03,-17.52 13.45,-19.92 18.89,-3.97 38.28,-3.6 57.14,-6.82 16.58,-2.84 22.77,3.52 26.35,18.82 2.51,10.72 0.11,13.83 -9.97,14.38 -15.01,0.82 -30.09,0.16 -44.96,3.67 -12.62,2.98 -17.48,10.12 -14.74,22.64 3,13.7 6.11,27.37 9.03,41.08 2.6,12.2 9.51,17.45 22.31,16.02 10.81,-1.21 21.87,-0.27 32.68,-1.5 11.86,-1.35 12.06,7.96 14.27,14.71 2.84,8.66 -5.38,6.88 -9.58,8.18 -9.92,3.06 -19.98,5.67 -30.01,8.37 -6.26,1.69 -12.94,4.21 -13.99,10.92 -3.04,19.49 -0.74,39.33 9.62,55.66 8.26,13.01 23.03,2.78 34.91,2.51 2.57,-0.06 5.12,-0.86 7.68,-1.31 21.7,-3.83 22.81,-2.78 31.03,16.9 3.99,9.54 0.99,12 -8.05,11.87 -12.98,-0.19 -25.97,-0.05 -38.96,-0.05 z m -12.89,22.13 c 24.44,1.51 47.75,-1.1 71.09,-2.32 22.49,-1.18 33.28,-21.31 22.49,-41.24 -1.98,-3.65 -4.11,-7.22 -6.02,-10.91 -19.09,-36.95 -13.76,-34.45 -62.05,-32.29 -4.25,0.2 -10.32,5.98 -12.18,-3.4 -1.48,-7.48 0.89,-11.17 8.75,-13.14 11.97,-3 24.81,-3.88 35.17,-11.79 2.85,-2.19 6.73,-4.02 8.14,-6.97 8.83,-18.44 -3.27,-34.12 -8.14,-50.43 -3.13,-10.49 -13.77,-13.25 -24.28,-13.52 -9.35,-0.24 -18.69,-0.63 -28.04,-0.69 -6.94,-0.04 -9.3,-3.12 -10.8,-10.08 -2.1,-9.79 0,-12.77 10.08,-12.49 9.8,0.27 19.68,-1.24 29.48,-2.37 13.32,-1.53 26.25,-15.85 24.78,-29.14 -2.2,-19.83 -9.62,-37.97 -22.49,-53.47 -3.55,-4.26 -9.07,-5.28 -14.35,-4.6 -33.5,4.35 -67.53,2.23 -100.88,8.62 -22.24,4.26 -27.99,15.15 -23.36,38.09 14.26,70.75 27.47,141.71 41.08,212.59 1.56,8.12 0.75,16.4 1.67,24.64 1.45,12.93 8.02,15.25 18.74,15 14.03,-0.33 28.08,-0.09 41.12,-0.09"
         style="fill:#ffffff;fill-opacity:1;fill-rule:nonzero;stroke:none"
         transform="matrix(0.13333333,0,0,-0.13333333,0,746.66667)" />
      <path
         id="path19"
         d="m 2526.38,2172.5 c -17.15,-12.79 -32.13,-28.03 -47.03,-43.34 -69.03,-70.88 -133.15,-146.18 -198.57,-220.31 -9.27,-10.5 -17.13,-27.54 -28.11,-29.86 -12.89,-2.72 -23,14.94 -34.23,23.74 -52.39,41.08 -104.42,82.66 -147.04,134.4 -7.24,8.79 -14.02,9.26 -23.77,3.86 -42.47,-23.51 -87.13,-41.88 -134.02,-54.62 -37.17,-10.1 -74.9,-22.49 -113.34,-18.85 -67.15,6.36 -134.66,7.41 -201.54,19.61 -79.48,14.51 -152.33,40.29 -214.12,93.9 -72.23,62.67 -134.84,131.32 -171.06,222.74 -40.57,102.36 -60.6,207.16 -56.09,316.77 0.82,20.14 3.75,40.18 6.3,60.14 26.44,28.28 57.7,49.24 106.54,41.34 4.79,-0.17 12.68,0.26 14.26,9.58 1.73,10.27 -5.97,13.34 -14.16,14.84 -7.66,1.41 -15.54,1.84 -23.1,3.62 -25.79,6.06 -46.51,18.28 -61.42,37.76 4.18,16.11 8.35,31.9 11.04,47.93 6,35.56 14.1,70.5 31.71,102.01 0.92,1.63 1.62,3.19 2.32,4.75 21.91,-42.63 34.89,-88.85 40.95,-137.64 1.12,-8.94 1.96,-19.08 13.49,-19.69 11.27,-0.6 15.98,7.87 18.13,17.89 1.85,8.63 3.52,17.33 5.94,25.8 24.94,87.33 61.04,166.94 146.56,212.72 8.8,4.72 10.28,12.77 2.19,20.54 -5.41,5.19 -11.64,9.14 -19.36,8.81 -17.67,-0.75 -32.64,6.67 -46.2,16.35 -18.78,13.41 -35.65,28.3 -49.96,45.08 31.13,37.67 69.1,68.24 107.31,97.82 60.02,46.48 127.9,76.48 204.37,85.16 43.44,4.93 86.93,8.25 130.56,10.68 36.02,2.01 71.79,0.89 107.43,-3.91 63.31,-8.53 123.79,-28.05 183.26,-50.23 68.23,-25.46 127.77,-63.33 175.55,-120.31 34.47,-41.12 68.88,-82.48 99,-126.46 28.75,-42 58.6,-84.58 73.9,-134.45 27.76,-90.47 47.24,-181.76 38.81,-277.67 -6.74,-76.68 -18.69,-151.82 -50.12,-222.45 -6.73,-15.12 -4.16,-25.89 4.35,-36.34 41.79,-51.36 72.06,-110.6 112.34,-162.92 6.57,-8.52 4.55,-13.11 -3.07,-18.79 z m -1411.77,486.81 c -4.67,22.99 -9.19,43.83 -18.15,63.35 -9.84,21.47 -27.09,33.52 -53.12,41.06 23.37,8.55 40.07,20.67 54.43,36.12 14.43,15.52 26.58,32.75 39.34,53.06 7.82,-47.77 25.02,-87.12 68.15,-112.3 -37.24,-19.9 -64.63,-47.77 -90.65,-81.29 z m 24.93,414.72 c 87.34,74.65 87.34,74.65 130.71,164.46 11.73,-42.47 22.55,-83.13 50.54,-115.45 27.36,-31.6 56.64,-61.16 99.33,-74.49 -65.2,-51.65 -104.82,-119.17 -130.91,-200.34 -25.09,94.43 -63.16,176.4 -149.67,225.82 z m 1438.8,-879.02 c -6.5,6.58 -13.05,13.48 -17.85,21.29 -30.5,49.6 -60.48,99.51 -90.74,149.26 -3.17,5.21 -3.99,9.73 -1.71,15.96 33.88,92.65 42.87,189.01 42.11,286.79 -0.38,29.62 -0.51,59.17 -2.69,88.83 -4.53,61.67 -13.94,121.79 -42.11,177.73 -8.65,17.17 -16.64,34.67 -25.02,51.99 -38.26,79.09 -86.96,150.06 -157.73,204.14 -25.26,19.31 -52.62,35.47 -78.42,53.89 -57.54,41.08 -123.63,60.78 -191,77.43 -5.31,1.31 -10.95,2.08 -15,-0.2 -69.21,19.96 -139.66,31.86 -213.04,26.95 -32.69,-2.19 -65.4,-4.16 -98.12,-5.89 -55.22,-2.91 -107.41,-17.65 -157.95,-39.37 -63.69,-27.38 -115.58,-71.39 -166.26,-117.17 -12.26,-11.07 -23.34,-23.26 -34.59,-35.32 -12.34,18.2 -21.89,38.47 -27.91,61.31 -6.08,23.11 -12.42,46.14 -18.41,69.27 -1.55,5.98 -3.82,10.86 -10.62,11.7 -7.3,0.89 -11.91,-3.09 -14.66,-9.23 -1.68,-3.74 -2.77,-7.84 -3.55,-11.88 -13.43,-70.02 -53.48,-122.95 -107.6,-166.58 -10.83,-8.73 -22.68,-16.86 -40.7,-15.49 -0.92,-0.05 -4.65,0.23 -8.15,-0.54 -7.37,-1.61 -9.61,-7.53 -9.89,-14.09 -0.24,-5.8 2.45,-9.6 8.82,-10.79 44.65,-8.35 76.63,-35.98 102.83,-70.59 6.55,-8.66 12.57,-17.54 18.2,-26.57 -9.56,-20.44 -19.4,-40.63 -26.86,-62.04 -9.94,-28.53 -11.77,-58.89 -20.17,-87.5 -8.91,24.47 -10.52,50.09 -12.06,75.78 -0.5,8.22 1.58,18.15 -9.36,20.43 -11.99,2.5 -13.85,-8.25 -17.33,-16.14 -1.05,-2.37 -1.87,-4.85 -2.84,-7.26 -13.84,-34.12 -31.9,-65.5 -60.68,-89.35 -21.64,-17.93 -46.95,-24.55 -74.335,-18.29 -11.457,2.61 -18.168,4.18 -21.359,-10.37 -3.211,-14.64 3.332,-18.79 15.469,-20.58 21.125,-3.12 41.805,-8.04 61.955,-15.28 12.56,-4.52 21.17,-12.94 26.44,-24.89 12.83,-29.12 19.14,-59.2 13.17,-91.09 -1.9,-10.2 -3.83,-20.43 -4.98,-30.73 -0.88,-7.92 -0.77,-16.95 9.65,-18.23 8.95,-1.1 12.45,5.81 13.74,13.75 3.77,23.23 14.6,43.73 28.82,61.51 0.49,0.62 0.99,1.23 1.48,1.85 -3.46,-31.75 -5.19,-63.52 -3.39,-95.76 4.26,-76.53 18.79,-150.28 43.88,-221.28 -0.64,-4.25 0.89,-9.51 1.08,-13.89 0.09,-2.03 0.96,-4.03 1.46,-6.05 7.33,-29.59 22.3,-55.87 35.67,-82.87 70.09,-141.51 183.67,-234.13 328.93,-289.99 58.48,-22.48 119.77,-34.77 184.37,-40.51 76.05,9.07 154.34,16.07 230.22,37.89 37.58,10.81 73.29,26.59 108.92,42.42 5.24,2.32 9.44,8.08 11.78,14.34 18.26,-18.78 37.7,-36.39 57.39,-53.62 31.7,-27.74 64.48,-54.3 97.41,-80.59 7.84,-6.25 26.12,-14.37 31.64,-14.75 12.11,-0.84 21.85,1.98 30.35,11.78 54.56,62.91 112.52,122.67 169.68,183.21 38.18,40.44 78.12,79.37 111.91,123.88 8.74,11.52 10.27,20.72 -0.29,31.39"
         style="fill:#ffffff;fill-opacity:1;fill-rule:nonzero;stroke:none"
         transform="matrix(0.13333333,0,0,-0.13333333,0,746.66667)" />
      <path
         id="path20"
         d="m 2015.83,2487.32 c -19.3,-34.69 -45.6,-63.39 -80.77,-82.5 -31.53,-17.13 -64.01,-32.93 -99.88,-38.71 -47.07,-7.59 -91.09,1.12 -130.3,23.13 -6.2,8.82 -12.2,16.63 -18.73,24.06 -22.26,25.35 -46.12,49.38 -57.58,82.52 -20.75,59.98 -25.57,121.15 -11.72,182.83 7.74,34.44 18.14,70.08 45.28,94.34 44.57,39.84 96.01,69.45 153.65,87.03 26.51,8.08 53.19,8.44 79.97,0.32 17.51,-5.31 35.25,-9.92 52.93,-14.67 63.91,-39.42 106.94,-111.85 107.56,-187.45 0.49,-60.42 -10.89,-117.85 -40.41,-170.9 z m -44.84,371.33 c -1.98,5.09 -8.5,7.03 -13.95,8.87 -40.92,24.1 -88.47,35.58 -141.65,35.91 -15.76,0.21 -31.26,-1.07 -46.78,-3.12 -75,-9.91 -137.43,-41.17 -181.42,-104.81 -50.15,-72.56 -68.08,-151.08 -42.33,-236.73 16.93,-56.3 47.05,-106.23 89.94,-145.87 71.63,-66.22 154.57,-90.74 250.2,-56.48 78.98,28.3 137.68,77.01 168.65,157.19 13.12,33.98 20.23,68.65 23.67,104.41 5.8,60.12 -2.67,117.74 -36.72,168.79 -19.99,29.97 -43.29,53.76 -69.61,71.84"
         style="fill:#ffffff;fill-opacity:1;fill-rule:nonzero;stroke:none"
         transform="matrix(0.13333333,0,0,-0.13333333,0,746.66667)" />
      <path
         id="path21"
         d="m 7963.88,2043.11 c 14,-14.1 11.9,-26.3 0.3,-41.6 -44.7,-58.9 -97.6,-110.5 -148.2,-164.1 -75.7,-80.2 -152.5,-159.3 -224.8,-242.7 -11.2,-12.9 -24.1,-16.7 -40.2,-15.6 -7.3,0.5 -31.5,11.3 -41.9,19.6 -6.4,5.1 -12.8,10.3 -19.2,15.5 l 17.5,21.8 c 7.9,-7.6 15.9,-13.4 25.1,-11.5 14.5,3.1 24.9,25.6 37.2,39.5 86.7,98.2 171.6,198 263,291.9 19.8,20.3 39.6,40.4 62.3,57.4 10.1,7.5 12.8,13.6 4.1,24.9 -26.7,34.6 -50.1,71.6 -73.7,108.4 -23.6,36.8 -47.4,73.4 -75.1,107.4 -13,7.6 -25.8,15.4 -38.3,23.6 -71.6,47.3 -136.7,103.7 -209.2,149.8 -4.2,2.6 -8.3,5.3 -12.5,7.9 l 5.1,8.3 c 43.7,-26.7 84.9,-57.7 125.9,-88.5 38.8,-29.1 78.1,-58.4 119.6,-83.9 -2.6,9 -1.7,18.9 3.6,30.9 41.7,93.6 57.5,193.1 66.4,294.7 11.2,127 -14.6,248 -51.4,367.8 -11.4,37.3 -29.1,71.5 -49.1,104.2 -27.6,-2 -55,-5 -82.3,-9.4 -79.7,-12.9 -157.9,-35.6 -232,-67.7 -37.1,-16.1 -73.2,-34.4 -107.9,-55 -7.4,-4.4 -14.8,-8.9 -22.2,-13.3 l -5,8.4 c 13.5,8.1 26.8,16.4 40.4,24.1 70.5,39.6 146,70.4 224.1,91.6 58.5,15.8 118.5,26.2 179,31 -13.8,21.8 -28.4,43.1 -42.9,64.2 -39.9,58.3 -85.5,113.1 -131.1,167.5 -63.3,75.5 -142.2,125.7 -232.6,159.4 -78.7,29.4 -158.9,55.2 -242.7,66.5 -23.7,3.2 -47.3,5.2 -71.1,6 3.1,-39.8 2.9,-79.9 -1,-119.6 -4.1,-41.2 -11.7,-82 -23.1,-121.8 -11.2,-39.5 -26.9,-77.4 -40,-116.3 -18.2,-54.1 -31,-116.8 -13.6,-171.9 l -9.2,-2.9 c -7,22.1 -9.7,45.5 -9.1,68.7 2.2,81.7 43.4,155.5 64.5,232.9 20.4,75.1 27.5,153.5 21.5,231 -20.3,0.5 -40.7,0.3 -61.2,-0.9 -57.8,-3.2 -115.4,-7.6 -173,-14.1 -101.3,-11.5 -191.2,-51.3 -270.7,-112.8 -50.6,-39.2 -100.9,-79.7 -142.1,-129.6 18.9,-22.3 41.3,-42 66.1,-59.7 18,-12.9 37.8,-22.7 61.2,-21.7 10.3,0.4 18.5,-4.8 25.7,-11.7 10.7,-10.3 8.7,-20.9 -2.9,-27.2 -23.7,-12.6 -44.4,-27.4 -62.8,-43.6 3.1,-4.2 6.2,-8.5 9.3,-12.7 l -7.9,-5.8 c -2.9,3.9 -5.8,7.8 -8.7,11.8 -20.3,-19.1 -37.6,-40.2 -52.5,-62.9 l -25.7,12.6 c 27.3,41 60.2,77.7 100.7,109.8 -56.5,17.7 -95.3,56.9 -131.6,98.7 -37,42.8 -51.4,96.7 -66.9,152.9 -50.2,-104 -56.5,-117 -134.8,-184.9 l -17.3,20.3 c 65,55.7 112.7,122.7 129.4,209.7 1,5.3 2.4,10.8 4.6,15.7 3.7,8.2 9.8,13.4 19.5,12.2 9,-1.1 12,-7.5 14,-15.5 8,-30.6 16.4,-61.1 24.4,-91.7 8,-30.3 20.7,-57.1 37,-81.2 14.9,16 29.6,32.1 45.8,46.8 67.1,60.6 135.9,118.9 220.3,155.2 66.9,28.7 136,48.3 209.2,52.1 43.3,2.3 86.6,4.9 130,7.8 97.1,6.5 190.5,-9.2 282.2,-35.7 5.3,3 12.8,2 19.8,0.3 89.3,-22.1 176.8,-48.2 253,-102.6 34.2,-24.4 70.4,-45.8 103.9,-71.4 93.8,-71.6 158.3,-165.6 208.9,-270.4 11.1,-22.9 21.7,-46.1 33.2,-68.8 37.3,-74.1 49.8,-153.8 55.8,-235.5 2.8,-39.3 3,-78.4 3.5,-117.6 1,-129.6 -10.9,-257.2 -55.8,-379.9 -3,-8.3 -1.9,-14.3 2.3,-21.2 40.1,-65.9 79.8,-132 120.2,-197.7 6.4,-10.3 15.1,-19.5 23.7,-28.2"
         style="fill:#3e48a5;fill-opacity:1;fill-rule:nonzero;stroke:none"
         transform="matrix(0.13333333,0,0,-0.13333333,0,746.66667)" />
      <path
         id="path22"
         d="m 7899.08,2038.21 c 8.7,-11.3 6,-17.4 -4.1,-24.9 -22.7,-17 -42.5,-37.1 -62.3,-57.4 -91.4,-93.9 -176.3,-193.7 -263,-291.9 -12.3,-13.9 -22.7,-36.4 -37.2,-39.5 -9.2,-1.9 -17.2,3.9 -25.1,11.5 -6.8,6.6 -13.4,14.5 -20.3,19.9 -69.4,54.5 -138.3,109.5 -194.8,178.1 -9.6,11.6 -18.5,12.2 -31.4,5.1 -28.2,-15.6 -57.1,-29.5 -86.8,-41.6 -3.7,21.7 -6,43.6 -7,65.1 -0.4,8.9 -0.7,17.8 -0.8,26.7 -0.7,38.7 0.6,77.4 -0.4,116.1 -1.2,46.9 -5.3,93.7 -12.2,140.2 -7.4,49.5 -18.2,98.5 -31.9,146.6 66.3,38.8 116.7,94.5 147,172.9 5.8,14.9 10.5,29.8 14.6,44.8 74.2,-5.3 143.8,-36 206.9,-74.6 4.2,-2.6 8.3,-5.3 12.5,-7.9 72.5,-46.1 137.6,-102.5 209.2,-149.8 12.5,-8.2 25.3,-16 38.3,-23.6 27.7,-34 51.5,-70.6 75.1,-107.4 23.6,-36.8 47,-73.8 73.7,-108.4"
         style="fill:#9bd97b;fill-opacity:1;fill-rule:nonzero;stroke:none"
         transform="matrix(0.13333333,0,0,-0.13333333,0,746.66667)" />
      <path
         id="path23"
         d="m 7759.48,2964.61 c 36.8,-119.8 62.6,-240.8 51.4,-367.8 -8.9,-101.6 -24.7,-201.1 -66.4,-294.7 -5.3,-12 -6.2,-21.9 -3.6,-30.9 -41.5,25.5 -80.8,54.8 -119.6,83.9 -41,30.8 -82.2,61.8 -125.9,88.5 -29.5,18.2 -60.1,34.5 -92.5,47.7 -37.4,15.2 -76.7,25.4 -116.9,28.5 6.9,27.4 11.5,55.3 14.2,83.6 7.7,79.7 -3.6,156 -48.7,223.6 -15.9,23.9 -33.4,44.7 -52.4,62.8 23.6,8.2 45.4,20.7 66.9,33.6 7.4,4.4 14.8,8.9 22.2,13.3 34.7,20.6 70.8,38.9 107.9,55 74.1,32.1 152.3,54.8 232,67.7 27.3,4.4 54.7,7.4 82.3,9.4 20,-32.7 37.7,-66.9 49.1,-104.2"
         style="fill:#6ebfc2;fill-opacity:1;fill-rule:nonzero;stroke:none"
         transform="matrix(0.13333333,0,0,-0.13333333,0,746.66667)" />
      <path
         id="path24"
         d="m 7661.58,3142.71 c 14.5,-21.1 29.1,-42.4 42.9,-64.2 -60.5,-4.8 -120.5,-15.2 -179,-31 -78.1,-21.2 -153.6,-52 -224.1,-91.6 -13.6,-7.7 -26.9,-16 -40.4,-24.1 -22.6,-13.5 -45.5,-26.4 -70.5,-34.2 -10,8.9 -20.4,17.2 -31.2,24.6 -2.6,6.7 -11.2,9.3 -18.4,11.7 -54.2,32 -117.2,47.2 -187.7,47.6 -10.9,0.2 -21.6,-0.3 -32.4,-1 -6.2,10.3 -10.9,21 -14.4,32 -17.4,55.1 -4.6,117.8 13.6,171.9 13.1,38.9 28.8,76.8 40,116.3 11.4,39.8 19,80.6 23.1,121.8 3.9,39.7 4.1,79.8 1,119.6 23.8,-0.8 47.4,-2.8 71.1,-6 83.8,-11.3 164,-37.1 242.7,-66.5 90.4,-33.7 169.3,-83.9 232.6,-159.4 45.6,-54.4 91.2,-109.2 131.1,-167.5"
         style="fill:#4d55af;fill-opacity:1;fill-rule:nonzero;stroke:none"
         transform="matrix(0.13333333,0,0,-0.13333333,0,746.66667)" />
      <path
         id="path25"
         d="m 7569.88,4068.01 c 28.6,-9.2 39.9,-33.3 31.9,-62.2 -3.5,-12.6 -8,-25 -10.9,-37.7 -4.6,-20.7 -17.2,-28.1 -37.6,-25.5 -13.7,1.6 -27.6,1.3 -41.3,2.7 -12.7,1.3 -25.3,3.7 -37.9,5.6 -0.7,-2 -1.4,-4 -2.1,-5.9 13.9,-7.8 27.8,-15.6 41.6,-23.3 l -13.9,-24.8 c -3,1.9 -7.6,2.9 -10.2,4.3 -17.4,9.9 -35.5,18.2 -51.9,29.8 -7.7,5.4 -11.5,11.5 -9.6,20.8 2.2,10.1 4.1,20.3 6.7,30.2 3,11.3 10.4,16.8 22.6,17.1 18.2,0.4 35.4,-5.5 53,-7.4 44.9,-4.8 38.1,-7 49.3,33.5 3.2,11.6 0,16.1 -11,18.9 -41.5,10.4 -83.3,17.9 -128,19.7 -14.8,5 -19.3,-4.5 -22.5,-18.5 -0.6,-2.7 -1.2,-5.4 -1.9,-8.1 l -26.9,6.4 c 2.1,8.7 4.1,17.4 5.7,26.2 3.5,18.3 13.4,23.6 27.9,23 56.5,-2.4 112.8,-7.4 167,-24.8"
         style="fill:#3e48a5;fill-opacity:1;fill-rule:nonzero;stroke:none"
         transform="matrix(0.13333333,0,0,-0.13333333,0,746.66667)" />
      <path
         id="path26"
         d="m 7548.58,4044.11 c 11,-2.8 14.2,-7.3 11,-18.9 -11.2,-40.5 -4.4,-38.3 -49.3,-33.5 -17.6,1.9 -34.8,7.8 -53,7.4 -12.2,-0.3 -19.6,-5.8 -22.6,-17.1 -2.6,-9.9 -4.5,-20.1 -6.7,-30.2 -1.9,-9.3 1.9,-15.4 9.6,-20.8 16.4,-11.6 34.5,-19.9 51.9,-29.8 2.6,-1.4 7.2,-2.4 10.2,-4.3 3,-2 4.6,-4.9 1.3,-10.2 -6.2,-10 -7.2,-27.7 -25.6,-24.4 -14.9,2.6 -29.6,6.4 -44.1,10.5 -18.3,5.2 -28.5,-0.3 -32.9,-19.6 -5.1,-22.6 -7.2,-46.1 -17.3,-67.7 -4.8,-10 1,-17.7 11.2,-23.1 22.6,-12 47.6,-17.7 71.1,-27.2 11.4,-4.6 14.5,-8.2 8.3,-20.5 -19.7,-38.7 -19,-38.9 -61,-26.3 -23,6.9 -46,14.4 -69.5,19.3 -15.3,3.2 -19.1,10 -16.4,24.3 13.9,73.7 30.6,146.7 49.4,219.3 0.6,2.4 1.3,4.9 1.9,7.3 6.8,26.2 13.9,52.3 20.1,78.6 0.7,2.7 1.3,5.4 1.9,8.1 3.2,14 7.7,23.5 22.5,18.5 44.7,-1.8 86.5,-9.3 128,-19.7"
         style="fill:#f8a43c;fill-opacity:1;fill-rule:nonzero;stroke:none"
         transform="matrix(0.13333333,0,0,-0.13333333,0,746.66667)" />
      <path
         id="path27"
         d="m 7534.88,3901.61 c 13.3,-27 7.8,-63.4 -16.9,-80.4 -14.7,-10.2 -34.2,-7.4 -51.8,-4.1 -22.5,4.2 -37.3,-9.3 -35.6,-32.5 0.5,-7 6.1,-6.7 10,-8.3 17.2,-7.1 34.9,-13 51.8,-20.7 36.6,-16.7 48.3,-38.6 21,-74.7 -49.2,-65 -52,-67.2 -128.6,-40.3 -20.7,7.3 -41.6,14.2 -62,22.3 -26.3,10.6 -34.1,24.5 -30.3,53.3 11.1,84.9 34.1,167.1 55.6,249.7 l 28,-7.3 c -0.6,-2.4 -1.3,-4.9 -1.9,-7.3 -18.8,-72.6 -35.5,-145.6 -49.4,-219.3 -2.7,-14.3 1.1,-21.1 16.4,-24.3 23.5,-4.9 46.5,-12.4 69.5,-19.3 42,-12.6 41.3,-12.4 61,26.3 6.2,12.3 3.1,15.9 -8.3,20.5 -23.5,9.5 -48.5,15.2 -71.1,27.2 -10.2,5.4 -16,13.1 -11.2,23.1 10.1,21.6 12.2,45.1 17.3,67.7 4.4,19.3 14.6,24.8 32.9,19.6 14.5,-4.1 29.2,-7.9 44.1,-10.5 18.4,-3.3 19.4,14.4 25.6,24.4 3.3,5.3 1.7,8.2 -1.3,10.2 l 13.9,24.8 c 0.3,-0.2 0.6,-0.3 0.9,-0.5 8.6,-4.7 15.8,-10.3 20.4,-19.6"
         style="fill:#3e48a5;fill-opacity:1;fill-rule:nonzero;stroke:none"
         transform="matrix(0.13333333,0,0,-0.13333333,0,746.66667)" />
      <path
         id="path28"
         d="m 7507.38,1636.01 -17.5,-21.8 c -37.2,29.7 -74,59.9 -109.8,91.2 -26.1,22.9 -51.8,46.2 -76,71.1 -3.1,-8.3 -8.7,-16 -15.6,-19 -47.2,-21 -94.5,-41.9 -144.3,-56.2 -100.5,-28.9 -204.2,-38.2 -305,-50.2 -85.5,7.6 -166.7,23.9 -244.2,53.6 -192.4,74 -342.9,196.7 -435.7,384.2 -17.7,35.7 -37.6,70.6 -47.3,109.8 -0.6,2.6 -1.8,5.3 -1.9,8 -0.2,5.8 -2.3,12.7 -1.4,18.4 -33.3,94 -52.5,191.7 -58.2,293.1 -2.2,40.9 -0.2,81.2 4,121.4 l 29.4,-2.8 c -1,-10 -1.8,-20 -2.2,-30 -0.5,-11.5 -0.7,-22.9 -0.7,-34.2 34.9,-4.3 70.4,-4.3 105.4,-0.9 40.6,3.8 80.6,11.5 120.2,20.4 l 2.1,-9.4 c -74.9,-17 -150.6,-29.2 -227.7,-20.2 0.5,-129.2 26.7,-253.6 75,-375.3 35.3,-89.1 89.6,-161.9 153.9,-227.2 36.2,20.8 71.3,43.2 104.7,68.4 5.4,4.1 10.8,8.3 16.2,12.4 l 6.1,-7.7 c -9.4,-7.4 -18.9,-14.6 -28.6,-21.7 -29.3,-21.5 -59.9,-40.6 -91.2,-58.7 21,-20.8 42.8,-40.9 65.5,-60.6 81.8,-71 178.3,-105.1 283.6,-124.4 88.6,-16.1 178,-17.5 267,-25.9 50.9,-4.9 100.9,11.6 150.1,24.9 27.6,7.5 54.6,16.6 81.1,27 -5.6,31.4 -7.5,63.4 -8,95.5 l 9.9,0.1 c 0.1,-8.9 0.4,-17.8 0.8,-26.7 1,-21.5 3.3,-43.4 7,-65.1 29.7,12.1 58.6,26 86.8,41.6 12.9,7.1 21.8,6.5 31.4,-5.1 56.5,-68.6 125.4,-123.6 194.8,-178.1 6.9,-5.4 13.5,-13.3 20.3,-19.9"
         style="fill:#3e48a5;fill-opacity:1;fill-rule:nonzero;stroke:none"
         transform="matrix(0.13333333,0,0,-0.13333333,0,746.66667)" />
      <path
         id="path29"
         d="m 7218.68,2430.31 c 39.1,70.3 54.2,146.4 53.6,226.4 -0.9,100.1 -57.9,196.1 -142.5,248.3 -23.4,6.3 -46.9,12.4 -70.1,19.4 -35.5,10.8 -70.8,10.3 -106,-0.4 -76.3,-23.3 -144.4,-62.5 -203.5,-115.3 -35.9,-32.1 -49.7,-79.3 -60,-124.9 -18.3,-81.8 -11.9,-162.8 15.5,-242.2 15.2,-43.9 46.8,-75.8 76.3,-109.3 8.7,-9.9 16.6,-20.2 24.8,-31.9 52,-29.2 110.3,-40.7 172.6,-30.6 47.5,7.6 90.6,28.5 132.3,51.2 46.6,25.3 81.5,63.4 107,109.3 z m 276.7,13.3 -5.1,-8.3 c -63.1,38.6 -132.7,69.3 -206.9,74.6 -4.1,-15 -8.8,-29.9 -14.6,-44.8 -30.3,-78.4 -80.7,-134.1 -147,-172.9 13.7,-48.1 24.5,-97.1 31.9,-146.6 6.9,-46.5 11,-93.3 12.2,-140.2 1,-38.7 -0.3,-77.4 0.4,-116.1 l -9.9,-0.1 c -0.9,42 0.6,84.2 -0.8,125.8 -3.1,92.1 -17.7,183.5 -42.8,272.1 -21,-11.5 -43.4,-21.6 -67.4,-30.2 -122.2,-43.8 -228.8,-14.9 -321.4,66 -34.5,-39.5 -69,-79 -104.6,-117.5 -56.8,-61.4 -116.6,-120.6 -182.5,-172.3 l -6.1,7.7 c 32.7,25.7 63.8,53.3 93.9,82 68,65 130.1,135.8 191.8,206.7 -0.8,0.8 -1.7,1.5 -2.5,2.2 -56.8,52.5 -96.7,118.7 -119.1,193.3 -11.6,38.5 -16.4,75.9 -15.2,112.3 -33.5,-2.5 -66.8,-7.5 -99.7,-14.1 -56.9,-11.5 -113.9,-27.4 -171.3,-40.5 l -2.1,9.4 c 90.7,20.7 180,48.6 273.5,55.3 4.2,67.1 29,130.7 70.8,191.1 1,1.4 1.9,2.6 2.8,3.9 -27.3,20.3 -53.1,42.7 -77.4,66.6 -56.4,55.4 -105,118 -151.8,181.5 -2.9,3.9 -5.9,7.9 -8.7,11.9 l 7.9,5.8 c 28.8,-39.3 58.1,-78.1 89.3,-115.4 43.8,-52.3 91.8,-101.6 146.6,-142.4 57.7,76.3 137.1,114.5 231.7,127 6.2,0.8 12.4,1.5 18.6,2.1 -5.3,9.6 -9.5,19.7 -12.7,30.1 l 9.2,2.9 c 3.5,-11 8.2,-21.7 14.4,-32 10.8,0.7 21.5,1.2 32.4,1 70.5,-0.4 133.5,-15.6 187.7,-47.6 7.2,-2.4 15.8,-5 18.4,-11.7 10.8,-7.4 21.2,-15.7 31.2,-24.6 25,7.8 47.9,20.7 70.5,34.2 l 5,-8.4 c -21.5,-12.9 -43.3,-25.4 -66.9,-33.6 19,-18.1 36.5,-38.9 52.4,-62.8 45.1,-67.6 56.4,-143.9 48.7,-223.6 -2.7,-28.3 -7.3,-56.2 -14.2,-83.6 40.2,-3.1 79.5,-13.3 116.9,-28.5 32.4,-13.2 63,-29.5 92.5,-47.7"
         style="fill:#3e48a5;fill-opacity:1;fill-rule:nonzero;stroke:none"
         transform="matrix(0.13333333,0,0,-0.13333333,0,746.66667)" />
      <path
         id="path30"
         d="m 7460.98,1351.11 c 14.5,-36.8 11.9,-43.4 -22.2,-61.4 -22.5,-11.9 -44.2,-25.4 -67.1,-36.2 -21.1,-9.9 -33.1,-6.3 -38.4,18.9 -2.3,10.8 -6.3,21.2 -10.8,31.7 l 27.5,10.8 c 6.9,-13.2 14.5,-8.7 41.8,5.6 15,7.9 16.7,15.6 11.2,30.7 -30.3,83.5 -71.3,162.7 -97.6,247.7 -1.3,4.2 -2.3,9.2 -9.4,8.7 -17.2,-1.1 -44.2,-25 -46.2,-42.4 -4.7,-39.7 -8.6,-79.4 -13.5,-119 -1.2,-9.9 -1.8,-22.2 -14.6,-24.6 -13.3,-2.5 -17.2,9.3 -21.6,18.4 -18.3,37 -31.2,76.6 -53.2,111.7 -4.4,7.1 -3.8,21.8 -18.5,16.7 -13.1,-4.6 -27.2,-6.8 -29,-26.7 l -27.2,3.1 c 0.5,3.8 0.9,7.5 1.3,11.3 1.5,13.4 6.4,21.8 18.3,27 11.3,4.9 22.3,10.8 34,14.7 16.4,5.4 29.1,0.6 37.5,-15.7 15.4,-29.8 32.5,-58.8 49.3,-89 2.4,25.9 4.5,51.9 7.2,77.8 3.8,34.7 53,73.3 87.9,69.7 16.1,-1.7 28,-8.6 36.1,-23.4 15.4,-28 24.1,-58.5 36,-87.8 21.1,-52.3 44,-103.9 70,-154 4.1,-7.9 8,-16 11.2,-24.3"
         style="fill:#3e48a5;fill-opacity:1;fill-rule:nonzero;stroke:none"
         transform="matrix(0.13333333,0,0,-0.13333333,0,746.66667)" />
      <path
         id="path31"
         d="m 7402.98,1351.21 c 5.5,-15.1 3.8,-22.8 -11.2,-30.7 -27.3,-14.3 -34.9,-18.8 -41.8,-5.6 -2.8,5.4 -5.4,13.7 -9.3,25.6 -9.8,30.1 -20.1,60.1 -30.5,90 -3.4,9.8 -7.4,20.6 -20.6,19.4 -13.4,-1.2 -14.8,-12.9 -16.4,-23 -7.6,-46.9 -16.6,-93.5 -28.3,-139.6 -1.3,-5.3 -2.6,-10.7 -4.5,-15.9 -1.6,-4.3 -2.5,-10.4 -8.2,-10.6 -6.1,-0.2 -6.8,6.1 -8.4,10.3 -13.2,33.2 -26.2,66.6 -39.2,99.9 -3.3,8.3 -6.2,16.8 -10,24.8 -3.9,8 -10.3,13.4 -19.7,12.3 -9.8,-1.3 -13.5,-8.5 -14.3,-17.6 -2.7,-27.3 -5.4,-54.7 -8,-82.1 -0.3,-2.7 0,-5.5 -0.1,-8.3 -0.6,-31.8 -19.5,-46.5 -50.4,-39.8 -6.6,1.4 -7.3,5.3 -7.5,10.2 -0.2,9.6 0,19.3 0,28.9 -0.3,0 -0.5,0.1 -0.7,0.1 8.6,80.7 17.9,161.4 25.5,242.2 1.8,19.9 15.9,22.1 29,26.7 14.7,5.1 14.1,-9.6 18.5,-16.7 22,-35.1 34.9,-74.7 53.2,-111.7 4.4,-9.1 8.3,-20.9 21.6,-18.4 12.8,2.4 13.4,14.7 14.6,24.6 4.9,39.6 8.8,79.3 13.5,119 2,17.4 29,41.3 46.2,42.4 7.1,0.5 8.1,-4.5 9.4,-8.7 26.3,-85 67.3,-164.2 97.6,-247.7"
         style="fill:#f8a43c;fill-opacity:1;fill-rule:nonzero;stroke:none"
         transform="matrix(0.13333333,0,0,-0.13333333,0,746.66667)" />
      <path
         id="path32"
         d="m 7369.28,4043.61 26.9,-6.4 c -6.2,-26.3 -13.3,-52.4 -20.1,-78.6 l -28,7.3 c 6.7,25.9 14.8,51.7 21.2,77.7"
         style="fill:#3e48a5;fill-opacity:1;fill-rule:nonzero;stroke:none"
         transform="matrix(0.13333333,0,0,-0.13333333,0,746.66667)" />
      <path
         id="path33"
         d="m 7349.98,1314.91 -27.5,-10.8 c -4.5,10.5 -9.6,21.1 -14.1,32.3 -9.2,-27 -17.5,-52.4 -26.6,-77.5 -3.3,-8.9 -7.6,-17.8 -13,-25.7 -7.9,-11.7 -21.2,-13.1 -33.9,-16.7 -19.3,-5.5 -20.5,8.4 -27.6,19 -13.4,20.4 -17.7,44.5 -31.4,70.7 -1.9,-24.2 -4.1,-43.3 -4.8,-62.5 -0.7,-19 -9.1,-29.4 -28.4,-31.2 -22.6,-2.1 -45.2,-3.9 -68,-2 -20.1,1.6 -27.9,11.2 -29.5,31.6 -3.1,39.4 0.9,78.4 5.2,117.3 6.8,61.8 15,123.5 21.8,185.4 l 27.2,-3.1 c -7.6,-80.8 -16.9,-161.5 -25.5,-242.2 0.2,0 0.4,-0.1 0.7,-0.1 0,-9.6 -0.2,-19.3 0,-28.9 0.2,-4.9 0.9,-8.8 7.5,-10.2 30.9,-6.7 49.8,8 50.4,39.8 0.1,2.8 -0.2,5.6 0.1,8.3 2.6,27.4 5.3,54.8 8,82.1 0.8,9.1 4.5,16.3 14.3,17.6 9.4,1.1 15.8,-4.3 19.7,-12.3 3.8,-8 6.7,-16.5 10,-24.8 13,-33.3 26,-66.7 39.2,-99.9 1.6,-4.2 2.3,-10.5 8.4,-10.3 5.7,0.2 6.6,6.3 8.2,10.6 1.9,5.2 3.2,10.6 4.5,15.9 11.7,46.1 20.7,92.7 28.3,139.6 1.6,10.1 3,21.8 16.4,23 13.2,1.2 17.2,-9.6 20.6,-19.4 10.4,-29.9 20.7,-59.9 30.5,-90 3.9,-11.9 6.5,-20.2 9.3,-25.6"
         style="fill:#3e48a5;fill-opacity:1;fill-rule:nonzero;stroke:none"
         transform="matrix(0.13333333,0,0,-0.13333333,0,746.66667)" />
      <path
         id="path34"
         d="m 7200.98,3757.31 c 4.2,-49.4 1.3,-56.8 -47.1,-63.3 -25.9,-3.5 -52,-5.7 -78,-8.5 -20.5,-2.3 -30.2,9.3 -38.6,45.1 -8.5,36.9 -8.3,75.2 -9.5,113.1 -0.2,7.4 1.5,17.1 0.5,24.4 l 28.7,1.8 c 2.1,-31.7 3.5,-63.5 5.2,-95.4 2.1,-42.9 2.1,-42.9 43.6,-41.2 9.7,0 19.4,0.2 29,-0.1 10.7,-0.3 14.2,4.1 13.4,15 -4,52.8 -7.4,105.7 -11,158.6 -4.1,62.5 -12.2,124.7 -12.5,187.5 -0.2,40.4 0,40.4 -39.4,35.5 -5.6,-0.7 -10.3,-1.3 -14.2,-1.9 l -5.3,29 c 17.3,3.5 34.9,5.9 52.5,7.4 33.8,2.8 53.6,-11.7 56,-44.8 4.1,-57 5.9,-114.1 7.8,-171.2 2,-64.1 13.5,-127.2 18.9,-191"
         style="fill:#3e48a5;fill-opacity:1;fill-rule:nonzero;stroke:none"
         transform="matrix(0.13333333,0,0,-0.13333333,0,746.66667)" />
      <path
         id="path35"
         d="m 7156.38,1889.21 c 0.5,-32.1 2.4,-64.1 8,-95.5 -26.5,-10.4 -53.5,-19.5 -81.1,-27 -49.2,-13.3 -99.2,-29.8 -150.1,-24.9 -89,8.4 -178.4,9.8 -267,25.9 -105.3,19.3 -201.8,53.4 -283.6,124.4 -22.7,19.7 -44.5,39.8 -65.5,60.6 31.3,18.1 61.9,37.2 91.2,58.7 9.7,7.1 19.2,14.3 28.6,21.7 65.9,51.7 125.7,110.9 182.5,172.3 35.6,38.5 70.1,78 104.6,117.5 92.6,-80.9 199.2,-109.8 321.4,-66 24,8.6 46.4,18.7 67.4,30.2 25.1,-88.6 39.7,-180 42.8,-272.1 1.4,-41.6 -0.1,-83.8 0.8,-125.8"
         style="fill:#f8a43c;fill-opacity:1;fill-rule:nonzero;stroke:none"
         transform="matrix(0.13333333,0,0,-0.13333333,0,746.66667)" />
      <path
         id="path36"
         d="m 7148.18,3748.21 c 0.8,-10.9 -2.7,-15.3 -13.4,-15 -9.6,0.3 -19.3,0.1 -29,0.1 -41.5,-1.7 -41.5,-1.7 -43.6,41.2 -1.7,31.9 -3.1,63.7 -5.2,95.4 -0.3,6.1 -0.7,12.1 -1.1,18.1 -1.9,27.7 -11,35.3 -38.7,31.7 -20.5,-2.6 -40.7,-7.3 -60.7,-12.3 -29.3,-7.4 -33.9,-12.2 -35.4,-42.3 -1.8,-38.6 -4.8,-77 -9,-115.4 -2.2,-19.3 -25.1,-35.7 -43.8,-30.8 -8.8,2.4 -7.7,10.7 -8.5,17 -5.9,45.8 -11.1,91.6 -16.8,137.3 -7.5,60.2 -11.9,120.6 -16.3,181 -2.1,29.2 -2.5,29.3 26.7,37.7 8.4,2.5 15.3,4.5 21.1,5.8 27.2,6.6 28.1,-0.4 34.2,-40 3.4,-22.5 7.8,-44.8 12,-67.1 3.3,-17.6 14.1,-24.3 31.5,-20.5 0.7,0.2 1.4,0.4 2,0.5 71.4,15.1 71.4,15.1 85.1,86.9 2,10.8 4.3,21.6 5.7,32.5 4,29.9 4.6,34.5 26.1,37.9 3.9,0.6 8.6,1.2 14.2,1.9 39.4,4.9 39.2,4.9 39.4,-35.5 0.3,-62.8 8.4,-125 12.5,-187.5 3.6,-52.9 7,-105.8 11,-158.6"
         style="fill:#f8a43c;fill-opacity:1;fill-rule:nonzero;stroke:none"
         transform="matrix(0.13333333,0,0,-0.13333333,0,746.66667)" />
      <path
         id="path37"
         d="m 7065.78,4156.91 5.3,-29 c -21.5,-3.4 -22.1,-8 -26.1,-37.9 -1.4,-10.9 -3.7,-21.7 -5.7,-32.5 -13.7,-71.8 -13.7,-71.8 -85.1,-86.9 -0.6,-0.1 -1.3,-0.3 -2,-0.5 -17.4,-3.8 -28.2,2.9 -31.5,20.5 -4.2,22.3 -8.6,44.6 -12,67.1 -6.1,39.6 -7,46.6 -34.2,40 l -6,27.3 c 13.8,3.1 27.8,5.3 42.1,6.2 30.8,2.3 34.5,-11.2 42.3,-37.6 6.6,-22.3 8.8,-45.9 13.6,-68.8 1.5,-7 -0.8,-18.8 12.4,-17.1 10.4,1.3 20.4,4.1 22.6,17.2 4.5,25.7 10.7,51.3 13.7,77.2 5.1,45.2 4.3,45.6 50,54.7 0.2,0 0.4,0.1 0.6,0.1"
         style="fill:#3e48a5;fill-opacity:1;fill-rule:nonzero;stroke:none"
         transform="matrix(0.13333333,0,0,-0.13333333,0,746.66667)" />
      <path
         id="path38"
         d="m 7055.88,3888.01 c 0.4,-6 0.8,-12 1.1,-18.1 l -28.7,-1.8 c -0.6,4.7 -2.3,8.5 -6.4,9.8 -10.7,3.4 -25.8,-6.2 -38.9,-10.5 -6.2,-2 -6.8,-8 -7.6,-13.5 -5.5,-41.7 -11.8,-83.2 -16.4,-124.9 -4.3,-38.9 -14,-50.2 -52.6,-56.5 -47.3,-7.8 -69.8,7.4 -76.2,55.2 -14.4,107.1 -26.9,214.4 -30.1,322.5 -0.2,6.9 -1,13.8 -2.1,20.5 -4.7,29.6 -4.8,29.6 24.6,40.5 15.1,5.6 30.4,10.3 45.9,13.8 l 6,-27.3 c -5.8,-1.3 -12.7,-3.3 -21.1,-5.8 -29.2,-8.4 -28.8,-8.5 -26.7,-37.7 4.4,-60.4 8.8,-120.8 16.3,-181 5.7,-45.7 10.9,-91.5 16.8,-137.3 0.8,-6.3 -0.3,-14.6 8.5,-17 18.7,-4.9 41.6,11.5 43.8,30.8 4.2,38.4 7.2,76.8 9,115.4 1.5,30.1 6.1,34.9 35.4,42.3 20,5 40.2,9.7 60.7,12.3 27.7,3.6 36.8,-4 38.7,-31.7"
         style="fill:#3e48a5;fill-opacity:1;fill-rule:nonzero;stroke:none"
         transform="matrix(0.13333333,0,0,-0.13333333,0,746.66667)" />
      <path
         id="path39"
         d="m 7036.48,1204.81 c 3.4,-13.8 -0.3,-20.9 -14.7,-26.2 -32.7,-12.1 -65.8,-20.5 -100.8,-16.5 -29.7,3.5 -33.4,12.1 -33.5,41.8 0,12.3 -0.5,24.7 -1.3,37.1 l 29.5,1.6 c 1.7,-28.5 6.1,-28.3 41.9,-27.8 24.9,0.4 24.8,0.4 21.2,25.9 -12.1,87.3 -19.8,175 -24,263.1 -0.7,15.7 6.4,35.8 -3.1,45.9 -4.1,4.4 -9.7,5.7 -15.8,5.7 l 0.4,27.3 c 1.6,0 3.3,0 4.9,-0.1 54.4,-1.8 55.9,-12.9 59.6,-55.8 5.5,-64.5 8,-129.2 16.9,-193.3 6,-43 8.3,-86.5 18.8,-128.7"
         style="fill:#3e48a5;fill-opacity:1;fill-rule:nonzero;stroke:none"
         transform="matrix(0.13333333,0,0,-0.13333333,0,746.66667)" />
      <path
         id="path40"
         d="m 6978.78,1240.71 c 3.6,-25.5 3.7,-25.5 -21.2,-25.9 -35.8,-0.5 -40.2,-0.7 -41.9,27.8 -0.2,3.6 -0.4,7.6 -0.6,12.1 -1.2,30.3 -0.7,60.6 -1.9,90.9 -0.6,15.5 0.9,33.3 -20.7,37.4 -22.4,4.3 -34.5,-2.7 -44,-27.2 -13.7,-35.3 -26.4,-71 -39.7,-106.4 -6.3,-16.7 -35.6,-22.9 -47.8,-10.1 -6.1,6.3 -0.9,13.4 0.9,19.2 21.9,73.2 44.3,146.3 66.7,219.3 5.4,17.8 11.6,35.3 16.3,53.3 3.7,14.2 10.3,22.4 23.8,22.4 2,0 4.2,-0.2 6.6,-0.6 9.4,-1.4 19.2,-0.2 31.3,-0.2 8.5,-0.7 19.6,2.7 29.3,2.7 6.1,0 11.7,-1.3 15.8,-5.7 9.5,-10.1 2.4,-30.2 3.1,-45.9 4.2,-88.1 11.9,-175.8 24,-263.1"
         style="fill:#f8a43c;fill-opacity:1;fill-rule:nonzero;stroke:none"
         transform="matrix(0.13333333,0,0,-0.13333333,0,746.66667)" />
      <path
         id="path41"
         d="m 6974.08,3542.21 c 6,-77.5 -1.1,-155.9 -21.5,-231 -21.1,-77.4 -62.3,-151.2 -64.5,-232.9 -0.6,-23.2 2.1,-46.6 9.1,-68.7 3.2,-10.4 7.4,-20.5 12.7,-30.1 -6.2,-0.6 -12.4,-1.3 -18.6,-2.1 -94.6,-12.5 -174,-50.7 -231.7,-127 -54.8,40.8 -102.8,90.1 -146.6,142.4 -31.2,37.3 -60.5,76.1 -89.3,115.4 -3.1,4.2 -6.2,8.5 -9.3,12.7 18.4,16.2 39.1,31 62.8,43.6 11.6,6.3 13.6,16.9 2.9,27.2 -7.2,6.9 -15.4,12.1 -25.7,11.7 -23.4,-1 -43.2,8.8 -61.2,21.7 -24.8,17.7 -47.2,37.4 -66.1,59.7 41.2,49.9 91.5,90.4 142.1,129.6 79.5,61.5 169.4,101.3 270.7,112.8 57.6,6.5 115.2,10.9 173,14.1 20.5,1.2 40.9,1.4 61.2,0.9"
         style="fill:#9841a6;fill-opacity:1;fill-rule:nonzero;stroke:none"
         transform="matrix(0.13333333,0,0,-0.13333333,0,746.66667)" />
      <path
         id="path42"
         d="m 6936.28,1582.71 -0.4,-27.3 c -9.7,0 -20.8,-3.4 -29.3,-2.7 -12.1,0 -21.9,-1.2 -31.3,0.2 -2.4,0.4 -4.6,0.6 -6.6,0.6 l 0.5,25.9 c 22.3,0 44.8,3.4 67.1,3.3"
         style="fill:#3e48a5;fill-opacity:1;fill-rule:nonzero;stroke:none"
         transform="matrix(0.13333333,0,0,-0.13333333,0,746.66667)" />
      <path
         id="path43"
         d="m 6915.68,1242.61 -29.5,-1.6 c -1.4,20.7 -3.6,41.5 -5.8,62.7 -12.4,-32.6 -25.6,-64.9 -36.9,-97.8 -6.8,-19.6 -18.3,-26.3 -38.9,-24.7 -20.6,1.5 -40.8,4.1 -61.1,8.2 -13.2,2.6 -19,9.1 -19.7,22 -1.1,21 3.8,41.2 9.9,60.8 29.3,94 59.4,187.7 89.6,281.4 6.9,21.4 19.3,26.5 41.6,25.9 1.4,0 2.9,-0.1 4.3,-0.1 l -0.5,-25.9 c -13.5,0 -20.1,-8.2 -23.8,-22.4 -4.7,-18 -10.9,-35.5 -16.3,-53.3 -22.4,-73 -44.8,-146.1 -66.7,-219.3 -1.8,-5.8 -7,-12.9 -0.9,-19.2 12.2,-12.8 41.5,-6.6 47.8,10.1 13.3,35.4 26,71.1 39.7,106.4 9.5,24.5 21.6,31.5 44,27.2 21.6,-4.1 20.1,-21.9 20.7,-37.4 1.2,-30.3 0.7,-60.6 1.9,-90.9 0.2,-4.5 0.4,-8.5 0.6,-12.1"
         style="fill:#3e48a5;fill-opacity:1;fill-rule:nonzero;stroke:none"
         transform="matrix(0.13333333,0,0,-0.13333333,0,746.66667)" />
      <path
         id="path44"
         d="m 6704.78,1599.41 c 29.8,-1.5 44,-28.2 29.7,-54.6 -2.6,-4.8 -5.4,-9.6 -7.9,-14.5 -25.3,-48.9 -18.3,-45.6 -82.2,-42.7 -5.6,0.2 -13.7,7.9 -16.2,-4.5 -1.9,-9.9 1.2,-14.8 11.6,-17.4 15.9,-4 32.9,-5.2 46.6,-15.7 3.8,-2.9 8.9,-5.3 10.8,-9.2 11.7,-24.4 -4.3,-45.2 -10.8,-66.8 -4.1,-13.9 -18.2,-17.5 -32.1,-17.9 -12.4,-0.3 -24.8,-0.8 -37.2,-0.9 -9.2,-0.1 -12.3,-4.1 -14.3,-13.4 -2.7,-12.3 -0.2,-16.5 11.7,-16.5 l -1.2,-29.4 c -15.7,0.5 -31.3,0.7 -46.8,4.4 -16.8,4 -23.2,13.4 -19.6,30 4,18.1 8.1,36.2 12,54.4 3.4,16.2 12.6,23.1 29.6,21.2 14.3,-1.6 28.9,-0.3 43.2,-2 15.8,-1.7 16,10.6 18.9,19.5 3.8,11.5 -7.1,9.1 -12.6,10.9 -13.2,4 -26.5,7.5 -39.8,11.1 -8.3,2.2 -17.1,5.5 -18.5,14.4 -4.1,25.8 -1,52.1 12.7,73.7 11,17.3 30.5,3.7 46.3,3.4 3.4,-0.1 6.7,-1.2 10.1,-1.8 28.8,-5 30.2,-3.7 41.1,22.4 4.7,11.3 2.2,15.1 -6.8,15.6 l 1.8,27.5 c 6.6,-0.4 13.3,-0.8 19.9,-1.2"
         style="fill:#3e48a5;fill-opacity:1;fill-rule:nonzero;stroke:none"
         transform="matrix(0.13333333,0,0,-0.13333333,0,746.66667)" />
      <path
         id="path45"
         d="m 6713.98,2331.71 c 0.8,-0.7 1.7,-1.4 2.5,-2.2 -61.7,-70.9 -123.8,-141.7 -191.8,-206.7 -30.1,-28.7 -61.2,-56.3 -93.9,-82 -5.4,-4.1 -10.8,-8.3 -16.2,-12.4 -33.4,-25.2 -68.5,-47.6 -104.7,-68.4 -64.3,65.3 -118.6,138.1 -153.9,227.2 -48.3,121.7 -74.5,246.1 -75,375.3 77.1,-9 152.8,3.2 227.7,20.2 57.4,13.1 114.4,29 171.3,40.5 32.9,6.6 66.2,11.6 99.7,14.1 -1.2,-36.4 3.6,-73.8 15.2,-112.3 22.4,-74.6 62.3,-140.8 119.1,-193.3"
         style="fill:#f57a66;fill-opacity:1;fill-rule:nonzero;stroke:none"
         transform="matrix(0.13333333,0,0,-0.13333333,0,746.66667)" />
      <path
         id="path46"
         d="m 6683.08,1573.11 c 9,-0.5 11.5,-4.3 6.8,-15.6 -10.9,-26.1 -12.3,-27.4 -41.1,-22.4 -3.4,0.6 -6.7,1.7 -10.1,1.8 -15.8,0.3 -35.3,13.9 -46.3,-3.4 -13.7,-21.6 -16.8,-47.9 -12.7,-73.7 1.4,-8.9 10.2,-12.2 18.5,-14.4 13.3,-3.6 26.6,-7.1 39.8,-11.1 5.5,-1.8 16.4,0.6 12.6,-10.9 -2.9,-8.9 -3.1,-21.2 -18.9,-19.5 -14.3,1.7 -28.9,0.4 -43.2,2 -17,1.9 -26.2,-5 -29.6,-21.2 -3.9,-18.2 -8,-36.3 -12,-54.4 l -27.5,4.9 c 13.5,75.3 26.7,150.7 39.7,226.1 1.6,9.7 5.8,12.5 14.9,12.3 17.9,-0.4 35.8,-0.1 53.7,-0.1 0,-0.1 0,-0.2 0,-0.3 17.2,0 34.4,-0.2 51.6,0 1.4,0 2.6,0 3.8,-0.1"
         style="fill:#f8a43c;fill-opacity:1;fill-rule:nonzero;stroke:none"
         transform="matrix(0.13333333,0,0,-0.13333333,0,746.66667)" />
      <path
         id="path47"
         d="m 6655.18,1322.11 c 17.7,-2 34.8,-21 32.8,-38.6 -2.9,-26.2 -12.7,-50.3 -29.8,-70.8 -4.6,-5.6 -12,-7 -19,-6.1 -44.3,5.8 -89.4,3 -133.6,11.4 -29.4,5.7 -37.1,20.1 -30.9,50.5 18.9,93.7 36.4,187.7 54.4,281.6 2,10.8 1,21.7 2.2,32.6 1.9,17.2 10.6,20.2 24.8,19.9 18.6,-0.4 37.2,-0.1 54.5,-0.1 25.5,1.6 49.9,-0.3 74.3,-1.9 l -1.8,-27.5 c -1.2,0.1 -2.4,0.1 -3.8,0.1 -17.2,-0.2 -34.4,0 -51.6,0 0,0.1 0,0.2 0,0.3 -17.9,0 -35.8,-0.3 -53.7,0.1 -9.1,0.2 -13.3,-2.6 -14.9,-12.3 -13,-75.4 -26.2,-150.8 -39.7,-226.1 -2.8,-16.1 -5.7,-32.2 -8.6,-48.3 -2.7,-15.4 2.7,-23.2 17.8,-26.4 25.1,-5.3 50.7,-4.8 75.7,-9 22,-3.8 30.2,4.6 34.9,24.9 3.3,14.2 0.2,18.3 -13.2,19 -4.2,0.2 -8.5,0.4 -12.7,0.5 l 1.2,29.4 c 0.5,0 1.1,0 1.7,0 13,0.3 26,-1.7 39,-3.2"
         style="fill:#3e48a5;fill-opacity:1;fill-rule:nonzero;stroke:none"
         transform="matrix(0.13333333,0,0,-0.13333333,0,746.66667)" />
      <path
         id="path48"
         d="m 6656.78,3967.31 c 6.3,-13.7 6.2,-23.5 -7.6,-35.4 -22.9,-20 -45,-40.5 -71.8,-55.2 -8.2,-4.5 -9.5,-9.8 -5.2,-18.5 29.9,-60.5 45.8,-126.9 79.2,-185.9 8.7,-15.4 3,-35.2 -12.5,-45.4 -22.4,-14.7 -45.4,-28.6 -68.5,-42.3 -38.5,-22.8 -55,-18.4 -84.7,24.2 -19.2,27.5 -34,58.1 -51.2,87.1 -10.9,18.4 -22.9,36.1 -33.7,54.5 -6.6,11.4 -13.6,13.4 -24.4,5.2 -13.1,-10 -26.9,-19.1 -40.5,-28.4 -9.7,-6.7 -19.1,-13.7 -29.3,-19.4 -27.5,-15.5 -38.2,-11.5 -55.5,14.5 -4.5,6.7 -8.7,13.7 -12.8,20.6 l 24.7,13.2 c 5.9,-10.4 11.3,-11.4 23.2,-2.8 24.3,17.8 50.2,33.8 76.4,48.9 22.2,12.9 34.4,8 48.2,-11.9 36.3,-52 67.5,-107.1 98.4,-162.3 7.6,-13.7 14.2,-14.4 27.4,-7.7 19.8,10.1 37.8,21.9 54.6,36.6 11.8,10.3 12.1,18.7 5.5,31.8 -29.6,58.3 -58.4,116.9 -87,175.7 -10.1,20.8 -7.2,29.6 12.3,40.8 25.2,14.4 46.7,34 69.8,51.2 4.1,3.1 10,5.7 8.8,14.9 -4.9,12.7 -9.2,28.1 -16.5,42 -13.5,25.7 -19.1,26.4 -45.3,14.4 -48.3,-22.3 -93.3,-50.3 -138.7,-77.5 -54.4,-32.5 -107,-67.7 -157.2,-106.5 -14.4,-11 -19.1,-21 -10.5,-35.3 l -24.2,-12.9 c -2.2,3.4 -4.4,6.8 -6.6,10.2 -10.1,15.2 -8.4,27.8 3.9,40.7 29.2,30.7 64.3,53.9 99.1,77.4 73.1,49.3 147.3,96.7 227.2,134.5 10.5,5 20.9,10.7 33.1,11.1 29.3,0.4 52.4,-14.7 64.5,-42 9,-20.1 18.3,-40.1 27.4,-60.1"
         style="fill:#3e48a5;fill-opacity:1;fill-rule:nonzero;stroke:none"
         transform="matrix(0.13333333,0,0,-0.13333333,0,746.66667)" />
      <path
         id="path49"
         d="m 6653.68,2842.41 c -0.9,-1.3 -1.8,-2.5 -2.8,-3.9 -41.8,-60.4 -66.6,-124 -70.8,-191.1 -93.5,-6.7 -182.8,-34.6 -273.5,-55.3 -39.6,-8.9 -79.6,-16.6 -120.2,-20.4 -35,-3.4 -70.5,-3.4 -105.4,0.9 0,11.3 0.2,22.7 0.7,34.2 0.4,10 1.2,20 2.2,30 1.7,16.6 4,33.1 6.1,49.6 35.1,37.5 76.5,65.3 141.2,54.8 6.3,-0.2 16.8,0.4 18.9,12.7 2.3,13.6 -7.9,17.7 -18.8,19.7 -10.1,1.8 -20.6,2.4 -30.6,4.7 -34.2,8.1 -61.6,24.3 -81.3,50.1 5.5,21.3 11,42.2 14.6,63.5 1.7,9.7 3.4,19.4 5.4,29 7.5,37 18,73 36.6,106.1 1.2,2.2 2.1,4.2 3,6.3 29.1,-56.5 46.3,-117.7 54.3,-182.3 1.5,-11.9 2.6,-25.3 17.9,-26.1 14.9,-0.8 21.1,10.4 24,23.7 2.4,11.4 4.6,22.9 7.8,34.1 17.3,60.7 38.8,118.5 71.6,168.6 14.9,22.7 32.2,43.8 52.5,62.9 2.9,-4 5.8,-7.9 8.7,-11.8 2.8,-4 5.8,-8 8.7,-11.9 46.8,-63.5 95.4,-126.1 151.8,-181.5 24.3,-23.9 50.1,-46.3 77.4,-66.6"
         style="fill:#d52832;fill-opacity:1;fill-rule:nonzero;stroke:none"
         transform="matrix(0.13333333,0,0,-0.13333333,0,746.66667)" />
      <path
         id="path50"
         d="m 6625.98,1295.41 c 13.4,-0.7 16.5,-4.8 13.2,-19 -4.7,-20.3 -12.9,-28.7 -34.9,-24.9 -25,4.2 -50.6,3.7 -75.7,9 -15.1,3.2 -20.5,11 -17.8,26.4 2.9,16.1 5.8,32.2 8.6,48.3 l 27.5,-4.9 c -3.6,-16.6 2.8,-26 19.6,-30 15.5,-3.7 31.1,-3.9 46.8,-4.4 4.2,-0.1 8.5,-0.3 12.7,-0.5"
         style="fill:#f8a43c;fill-opacity:1;fill-rule:nonzero;stroke:none"
         transform="matrix(0.13333333,0,0,-0.13333333,0,746.66667)" />
      <path
         id="path51"
         d="m 6600.58,3971.31 c 1.2,-9.2 -4.7,-11.8 -8.8,-14.9 -23.1,-17.2 -44.6,-36.8 -69.8,-51.2 -19.5,-11.2 -22.4,-20 -12.3,-40.8 28.6,-58.8 57.4,-117.4 87,-175.7 6.6,-13.1 6.3,-21.5 -5.5,-31.8 -16.8,-14.7 -34.8,-26.5 -54.6,-36.6 -13.2,-6.7 -19.8,-6 -27.4,7.7 -30.9,55.2 -62.1,110.3 -98.4,162.3 -13.8,19.9 -26,24.8 -48.2,11.9 -26.2,-15.1 -52.1,-31.1 -76.4,-48.9 -11.9,-8.6 -17.3,-7.6 -23.2,2.8 -0.5,0.8 -0.9,1.7 -1.4,2.6 -7.7,15.3 -15.4,31 -25.7,44.6 -1.3,1.7 -2.5,3.4 -3.5,5.1 -8.6,14.3 -3.9,24.3 10.5,35.3 50.2,38.8 102.8,74 157.2,106.5 45.4,27.2 90.4,55.2 138.7,77.5 26.2,12 31.8,11.3 45.3,-14.4 7.3,-13.9 11.6,-29.3 16.5,-42"
         style="fill:#f8a43c;fill-opacity:1;fill-rule:nonzero;stroke:none"
         transform="matrix(0.13333333,0,0,-0.13333333,0,746.66667)" />
      <path
         id="path52"
         d="m 6479.98,1569.01 c 0.4,-14.3 -2.8,-22.3 -8,-30 -17.9,-26.4 -41.2,-47.9 -64.6,-69.2 -13.2,-11.9 -28.2,-9.4 -42.5,-2.2 -20.8,10.6 -41.6,21.4 -61.5,33.4 -10.6,6.4 -14.9,3.3 -20.6,-6.1 -33.1,-54.3 -72.7,-103.5 -117.2,-149 -22.9,-23.4 -32,-25.4 -62,-11.8 -11.8,5.4 -23.2,12 -34,19.3 -24.2,16.5 -26.3,25.7 -14.3,51.8 22.2,48.2 51.2,92.7 77.3,138.8 l 25.7,-14.5 c -21,-37.3 -42.1,-74.5 -63.4,-111.6 -8.6,-14.9 -7,-24 8.1,-33.3 14.1,-8.6 23.1,-12.3 35.3,4.2 41.1,55.2 84,109.2 122.3,166.5 13.1,19.6 20.1,20.5 38.1,5.3 21.8,-18.3 46.2,-32.2 70.4,-46.9 9.2,-5.5 15.1,-6.1 22.2,3.5 13.3,18.4 27.8,36 42.3,53.5 5.4,6.5 6.4,10.8 -0.9,16.8 -15.3,12.8 -29.2,27.4 -45,39.5 -68.8,52.9 -138.1,105.1 -207,157.8 -6.7,5.2 -10.1,5.5 -13.9,-2.2 l -24.4,14.4 c 4.8,7.4 9.3,14.9 13.5,22.7 6.7,12.4 17,15.7 26.4,4.7 30.5,-35.7 70.4,-59.5 107.6,-86.3 59.7,-43.1 118.6,-87.2 174.1,-135.7 12.1,-10.6 14.5,-24.1 16,-33.4"
         style="fill:#3e48a5;fill-opacity:1;fill-rule:nonzero;stroke:none"
         transform="matrix(0.13333333,0,0,-0.13333333,0,746.66667)" />
      <path
         id="path53"
         d="m 6432.68,1587.51 c 7.3,-6 6.3,-10.3 0.9,-16.8 -14.5,-17.5 -29,-35.1 -42.3,-53.5 -7.1,-9.6 -13,-9 -22.2,-3.5 -24.2,14.7 -48.6,28.6 -70.4,46.9 -18,15.2 -25,14.3 -38.1,-5.3 -38.3,-57.3 -81.2,-111.3 -122.3,-166.5 -12.2,-16.5 -21.2,-12.8 -35.3,-4.2 -15.1,9.3 -16.7,18.4 -8.1,33.3 21.3,37.1 42.4,74.3 63.4,111.6 12.7,22.4 25.3,44.9 37.9,67.4 2.9,5.1 5.7,10.1 8.6,15.2 4,7.2 8.2,14.4 8.2,23.1 0.1,11.8 -7.2,19.1 -15.9,25.1 -21.4,15.1 -42.8,30.2 -64.6,44.6 -10.5,7 -13.2,12.9 -4.2,24.1 13.9,17.1 28.6,33.7 38.5,53.6 3.8,7.7 7.2,7.4 13.9,2.2 68.9,-52.7 138.2,-104.9 207,-157.8 15.8,-12.1 29.7,-26.7 45,-39.5"
         style="fill:#f8a43c;fill-opacity:1;fill-rule:nonzero;stroke:none"
         transform="matrix(0.13333333,0,0,-0.13333333,0,746.66667)" />
      <path
         id="path54"
         d="m 6297.98,3272.41 c 36.3,-41.8 75.1,-81 131.6,-98.7 -40.5,-32.1 -73.4,-68.8 -100.7,-109.8 -30.9,-46.4 -54.3,-98.4 -72.7,-155.5 -33.2,125 -83.6,233.6 -198.2,299.1 14.4,12.4 27.1,23.2 38.3,32.9 78.3,67.9 84.6,80.9 134.8,184.9 15.5,-56.2 29.9,-110.1 66.9,-152.9"
         style="fill:#ffffff;fill-opacity:1;fill-rule:nonzero;stroke:none"
         transform="matrix(0.13333333,0,0,-0.13333333,0,746.66667)" />
      <path
         id="path55"
         d="m 6328.88,3063.91 25.7,-12.6 c -32.8,-50.1 -54.3,-107.9 -71.6,-168.6 -3.2,-11.2 -5.4,-22.7 -7.8,-34.1 -2.9,-13.3 -9.1,-24.5 -24,-23.7 -15.3,0.8 -16.4,14.2 -17.9,26.1 -8,64.6 -25.2,125.8 -54.3,182.3 -0.9,-2.1 -1.8,-4.1 -3,-6.3 -18.6,-33.1 -29.1,-69.1 -36.6,-106.1 l -29.1,5.8 c 3.7,19.6 7.5,39.1 14.1,58 9.9,28.3 22.9,55.1 35.6,82.1 -7.4,12 -15.4,23.8 -24.1,35.2 -34.7,45.9 -77.1,82.5 -136.2,93.5 -8.4,1.6 -12,6.6 -11.7,14.3 0.4,8.7 3.3,16.6 13.1,18.7 4.6,1 9.6,0.6 10.8,0.7 23.9,-1.8 39.6,9 53.9,20.5 4.5,3.6 8.9,7.3 13.2,11 l 17.3,-20.3 c -11.2,-9.7 -23.9,-20.5 -38.3,-32.9 114.6,-65.5 165,-174.1 198.2,-299.1 18.4,57.1 41.8,109.1 72.7,155.5"
         style="fill:#3e48a5;fill-opacity:1;fill-rule:nonzero;stroke:none"
         transform="matrix(0.13333333,0,0,-0.13333333,0,746.66667)" />
      <path
         id="path56"
         d="m 6261.58,3758.71 c 0.5,-0.9 0.9,-1.8 1.4,-2.6 l -24.7,-13.2 c -10.2,17.5 -19.5,35.4 -30.1,52.6 l 24.2,12.9 c 1,-1.7 2.2,-3.4 3.5,-5.1 10.3,-13.6 18,-29.3 25.7,-44.6"
         style="fill:#3e48a5;fill-opacity:1;fill-rule:nonzero;stroke:none"
         transform="matrix(0.13333333,0,0,-0.13333333,0,746.66667)" />
      <path
         id="path57"
         d="m 6024.88,2658.11 c 34.5,44.4 70.8,81.4 120.1,107.7 -57.1,33.4 -79.9,85.5 -90.3,148.8 -16.9,-26.9 -33,-49.7 -52.1,-70.3 -19,-20.5 -41.1,-36.5 -72.1,-47.8 34.5,-10 57.4,-26 70.4,-54.4 11.9,-25.9 17.9,-53.5 24,-84 z m 206.4,115.5 c 10.9,-2 21.1,-6.1 18.8,-19.7 -2.1,-12.3 -12.6,-12.9 -18.9,-12.7 -64.7,10.5 -106.1,-17.3 -141.2,-54.8 -2.1,-16.5 -4.4,-33 -6.1,-49.6 l -29.4,2.8 c 0.1,1.8 0.3,3.6 0.5,5.4 -0.6,-0.8 -1.3,-1.6 -1.9,-2.4 -18.9,-23.6 -33.2,-50.7 -38.2,-81.5 -1.7,-10.5 -6.3,-19.7 -18.2,-18.2 -13.8,1.7 -14,13.6 -12.8,24.1 1.5,13.7 4.1,27.2 6.6,40.7 7.9,42.3 -0.4,82.1 -17.4,120.7 -7,15.8 -18.4,27 -35.1,33 -26.6,9.6 -54,16.1 -82,20.2 -16.1,2.4 -24.8,7.9 -20.5,27.3 4.2,19.2 13.1,17.2 28.3,13.7 36.3,-8.3 69.8,0.5 98.4,24.2 38.2,31.6 62.1,73.2 80.4,118.4 1.3,3.2 2.4,6.5 3.8,9.6 4.6,10.5 7.1,24.7 22.9,21.4 14.5,-3 11.8,-16.2 12.4,-27.1 2.1,-34 4.2,-67.9 16,-100.4 5.5,18.9 8.9,38.5 12.6,58 l 29.1,-5.8 c -2,-9.6 -3.7,-19.3 -5.4,-29 -3.6,-21.3 -9.1,-42.2 -14.6,-63.5 19.7,-25.8 47.1,-42 81.3,-50.1 10,-2.3 20.5,-2.9 30.6,-4.7"
         style="fill:#3e48a5;fill-opacity:1;fill-rule:nonzero;stroke:none"
         transform="matrix(0.13333333,0,0,-0.13333333,0,746.66667)" />
      <path
         id="path58"
         d="m 6197.08,1660.31 c 8.7,-6 16,-13.3 15.9,-25.1 0,-8.7 -4.2,-15.9 -8.2,-23.1 -2.9,-5.1 -5.7,-10.1 -8.6,-15.2 l -25.7,14.5 c 4.6,8.7 1.1,13.5 -7.7,18 -23.4,12.3 -43.6,28.5 -62,47.6 -15.7,16.4 -19,37.3 -4.8,56.3 2.6,3.5 5.3,7 7.9,10.5 l 24.4,-14.8 c -9,-11.2 -6.3,-17.1 4.2,-24.1 21.8,-14.4 43.2,-29.5 64.6,-44.6"
         style="fill:#3e48a5;fill-opacity:1;fill-rule:nonzero;stroke:none"
         transform="matrix(0.13333333,0,0,-0.13333333,0,746.66667)" />
      <path
         id="path59"
         d="m 6170.48,1611.41 25.7,-14.5 c -12.6,-22.5 -25.2,-45 -37.9,-67.4 l -25.7,14.5 c 3.7,6.5 7.4,13.2 11,19.8 8.1,15.1 16,30.5 25.3,44.9 0.6,0.9 1.2,1.9 1.6,2.7"
         style="fill:#3e48a5;fill-opacity:1;fill-rule:nonzero;stroke:none"
         transform="matrix(0.13333333,0,0,-0.13333333,0,746.66667)" />
      <path
         id="path60"
         d="m 6142.38,1797.01 24.4,-14.4 c -9.9,-19.9 -24.6,-36.5 -38.5,-53.6 l -24.4,14.8 c 13.3,17.5 26.7,34.8 38.5,53.2"
         style="fill:#3e48a5;fill-opacity:1;fill-rule:nonzero;stroke:none"
         transform="matrix(0.13333333,0,0,-0.13333333,0,746.66667)" />
      <path
         id="path61"
         d="m 6144.98,2765.81 c -49.3,-26.3 -85.6,-63.3 -120.1,-107.7 -6.1,30.5 -12.1,58.1 -24,84 -13,28.4 -35.9,44.4 -70.4,54.4 31,11.3 53.1,27.3 72.1,47.8 19.1,20.6 35.2,43.4 52.1,70.3 10.4,-63.3 33.2,-115.4 90.3,-148.8"
         style="fill:#ffffff;fill-opacity:1;fill-rule:nonzero;stroke:none"
         transform="matrix(0.13333333,0,0,-0.13333333,0,746.66667)" />
    </g>
  </g>
</svg>
